<?xml version="1.0" encoding="utf-8" standalone="no"?>
<!DOCTYPE svg PUBLIC "-//W3C//DTD SVG 1.1//EN"
  "http://www.w3.org/Graphics/SVG/1.1/DTD/svg11.dtd">
<svg xmlns:xlink="http://www.w3.org/1999/xlink" width="1058.888281pt" height="225pt" viewBox="0 0 1058.888281 225" xmlns="http://www.w3.org/2000/svg" version="1.1">
 <title>BRANCHING_CONTROL_VS_ENABLED_MORPHOLOGY</title>
 <metadata>
  <rdf:RDF xmlns:dc="http://purl.org/dc/elements/1.1/" xmlns:cc="http://creativecommons.org/ns#" xmlns:rdf="http://www.w3.org/1999/02/22-rdf-syntax-ns#">
   <cc:Work>
    <dc:type rdf:resource="http://purl.org/dc/dcmitype/StillImage"/>
    <dc:title>BRANCHING_CONTROL_VS_ENABLED_MORPHOLOGY</dc:title>
    <dc:description>CAPABILITY_DEMONSTRATION_NOT_VALIDATED_BRANCHING_PHYSICS</dc:description>
    <dc:format>image/svg+xml</dc:format>
    <dc:creator>
     <cc:Agent>
      <dc:title>PF current-source deterministic publisher</dc:title>
     </cc:Agent>
    </dc:creator>
   </cc:Work>
  </rdf:RDF>
 </metadata>
 <defs>
  <style type="text/css">*{stroke-linejoin: round; stroke-linecap: butt}</style>
 </defs>
 <g id="figure_1">
  <g id="patch_1">
   <path d="M 0 225
L 1058.888281 225
L 1058.888281 -0
L 0 -0
z
" style="fill: #ffffff"/>
  </g>
  <g id="axes_1">
   <g id="patch_2">
    <path d="M 47.288281 151.104095
L 342.700046 151.104095
L 342.700046 72.815905
L 47.288281 72.815905
z
" style="fill: #ffffff"/>
   </g>
   <g id="matplotlib.axis_1">
    <g id="xtick_1">
     <g id="line2d_1">
      <path d="M 60.716089 151.104095
L 60.716089 72.815905
" clip-path="url(#p82fe284e9d)" style="fill: none; stroke: #b0b0b0; stroke-opacity: 0.25; stroke-width: 0.8; stroke-linecap: square"/>
     </g>
     <g id="line2d_2">
      <defs>
       <path id="me8ba2b3e14" d="M 0 0
L 0 3.5
" style="stroke: #000000; stroke-width: 0.8"/>
      </defs>
      <g>
       <use xlink:href="#me8ba2b3e14" x="60.716089" y="151.104095" style="stroke: #000000; stroke-width: 0.8"/>
      </g>
     </g>
     <g id="text_1">
      <!-- −500 -->
      <g transform="translate(46.982495 165.701751) scale(0.1 -0.1)">
       <defs>
        <path id="DejaVuSans-c9c" d="M 678 2272
L 4684 2272
L 4684 1741
L 678 1741
L 678 2272
z
" transform="scale(0.015625)"/>
        <path id="DejaVuSans-18" d="M 691 4666
L 3169 4666
L 3169 4134
L 1269 4134
L 1269 2991
Q 1406 3038 1543 3061
Q 1681 3084 1819 3084
Q 2600 3084 3056 2656
Q 3513 2228 3513 1497
Q 3513 744 3044 326
Q 2575 -91 1722 -91
Q 1428 -91 1123 -41
Q 819 9 494 109
L 494 744
Q 775 591 1075 516
Q 1375 441 1709 441
Q 2250 441 2565 725
Q 2881 1009 2881 1497
Q 2881 1984 2565 2268
Q 2250 2553 1709 2553
Q 1456 2553 1204 2497
Q 953 2441 691 2322
L 691 4666
z
" transform="scale(0.015625)"/>
        <path id="DejaVuSans-13" d="M 2034 4250
Q 1547 4250 1301 3770
Q 1056 3291 1056 2328
Q 1056 1369 1301 889
Q 1547 409 2034 409
Q 2525 409 2770 889
Q 3016 1369 3016 2328
Q 3016 3291 2770 3770
Q 2525 4250 2034 4250
z
M 2034 4750
Q 2819 4750 3233 4129
Q 3647 3509 3647 2328
Q 3647 1150 3233 529
Q 2819 -91 2034 -91
Q 1250 -91 836 529
Q 422 1150 422 2328
Q 422 3509 836 4129
Q 1250 4750 2034 4750
z
" transform="scale(0.015625)"/>
       </defs>
       <use xlink:href="#DejaVuSans-c9c"/>
       <use xlink:href="#DejaVuSans-18" transform="translate(83.796875 0)"/>
       <use xlink:href="#DejaVuSans-13" transform="translate(147.421875 0)"/>
       <use xlink:href="#DejaVuSans-13" transform="translate(211.046875 0)"/>
      </g>
     </g>
    </g>
    <g id="xtick_2">
     <g id="line2d_3">
      <path d="M 94.192029 151.104095
L 94.192029 72.815905
" clip-path="url(#p82fe284e9d)" style="fill: none; stroke: #b0b0b0; stroke-opacity: 0.25; stroke-width: 0.8; stroke-linecap: square"/>
     </g>
     <g id="line2d_4">
      <g>
       <use xlink:href="#me8ba2b3e14" x="94.192029" y="151.104095" style="stroke: #000000; stroke-width: 0.8"/>
      </g>
     </g>
     <g id="text_2">
      <!-- −400 -->
      <g transform="translate(80.458436 165.701751) scale(0.1 -0.1)">
       <defs>
        <path id="DejaVuSans-17" d="M 2419 4116
L 825 1625
L 2419 1625
L 2419 4116
z
M 2253 4666
L 3047 4666
L 3047 1625
L 3713 1625
L 3713 1100
L 3047 1100
L 3047 0
L 2419 0
L 2419 1100
L 313 1100
L 313 1709
L 2253 4666
z
" transform="scale(0.015625)"/>
       </defs>
       <use xlink:href="#DejaVuSans-c9c"/>
       <use xlink:href="#DejaVuSans-17" transform="translate(83.796875 0)"/>
       <use xlink:href="#DejaVuSans-13" transform="translate(147.421875 0)"/>
       <use xlink:href="#DejaVuSans-13" transform="translate(211.046875 0)"/>
      </g>
     </g>
    </g>
    <g id="xtick_3">
     <g id="line2d_5">
      <path d="M 127.66797 151.104095
L 127.66797 72.815905
" clip-path="url(#p82fe284e9d)" style="fill: none; stroke: #b0b0b0; stroke-opacity: 0.25; stroke-width: 0.8; stroke-linecap: square"/>
     </g>
     <g id="line2d_6">
      <g>
       <use xlink:href="#me8ba2b3e14" x="127.66797" y="151.104095" style="stroke: #000000; stroke-width: 0.8"/>
      </g>
     </g>
     <g id="text_3">
      <!-- −300 -->
      <g transform="translate(113.934376 165.701751) scale(0.1 -0.1)">
       <defs>
        <path id="DejaVuSans-16" d="M 2597 2516
Q 3050 2419 3304 2112
Q 3559 1806 3559 1356
Q 3559 666 3084 287
Q 2609 -91 1734 -91
Q 1441 -91 1130 -33
Q 819 25 488 141
L 488 750
Q 750 597 1062 519
Q 1375 441 1716 441
Q 2309 441 2620 675
Q 2931 909 2931 1356
Q 2931 1769 2642 2001
Q 2353 2234 1838 2234
L 1294 2234
L 1294 2753
L 1863 2753
Q 2328 2753 2575 2939
Q 2822 3125 2822 3475
Q 2822 3834 2567 4026
Q 2313 4219 1838 4219
Q 1578 4219 1281 4162
Q 984 4106 628 3988
L 628 4550
Q 988 4650 1302 4700
Q 1616 4750 1894 4750
Q 2613 4750 3031 4423
Q 3450 4097 3450 3541
Q 3450 3153 3228 2886
Q 3006 2619 2597 2516
z
" transform="scale(0.015625)"/>
       </defs>
       <use xlink:href="#DejaVuSans-c9c"/>
       <use xlink:href="#DejaVuSans-16" transform="translate(83.796875 0)"/>
       <use xlink:href="#DejaVuSans-13" transform="translate(147.421875 0)"/>
       <use xlink:href="#DejaVuSans-13" transform="translate(211.046875 0)"/>
      </g>
     </g>
    </g>
    <g id="xtick_4">
     <g id="line2d_7">
      <path d="M 161.143911 151.104095
L 161.143911 72.815905
" clip-path="url(#p82fe284e9d)" style="fill: none; stroke: #b0b0b0; stroke-opacity: 0.25; stroke-width: 0.8; stroke-linecap: square"/>
     </g>
     <g id="line2d_8">
      <g>
       <use xlink:href="#me8ba2b3e14" x="161.143911" y="151.104095" style="stroke: #000000; stroke-width: 0.8"/>
      </g>
     </g>
     <g id="text_4">
      <!-- −200 -->
      <g transform="translate(147.410317 165.701751) scale(0.1 -0.1)">
       <defs>
        <path id="DejaVuSans-15" d="M 1228 531
L 3431 531
L 3431 0
L 469 0
L 469 531
Q 828 903 1448 1529
Q 2069 2156 2228 2338
Q 2531 2678 2651 2914
Q 2772 3150 2772 3378
Q 2772 3750 2511 3984
Q 2250 4219 1831 4219
Q 1534 4219 1204 4116
Q 875 4013 500 3803
L 500 4441
Q 881 4594 1212 4672
Q 1544 4750 1819 4750
Q 2544 4750 2975 4387
Q 3406 4025 3406 3419
Q 3406 3131 3298 2873
Q 3191 2616 2906 2266
Q 2828 2175 2409 1742
Q 1991 1309 1228 531
z
" transform="scale(0.015625)"/>
       </defs>
       <use xlink:href="#DejaVuSans-c9c"/>
       <use xlink:href="#DejaVuSans-15" transform="translate(83.796875 0)"/>
       <use xlink:href="#DejaVuSans-13" transform="translate(147.421875 0)"/>
       <use xlink:href="#DejaVuSans-13" transform="translate(211.046875 0)"/>
      </g>
     </g>
    </g>
    <g id="xtick_5">
     <g id="line2d_9">
      <path d="M 194.619851 151.104095
L 194.619851 72.815905
" clip-path="url(#p82fe284e9d)" style="fill: none; stroke: #b0b0b0; stroke-opacity: 0.25; stroke-width: 0.8; stroke-linecap: square"/>
     </g>
     <g id="line2d_10">
      <g>
       <use xlink:href="#me8ba2b3e14" x="194.619851" y="151.104095" style="stroke: #000000; stroke-width: 0.8"/>
      </g>
     </g>
     <g id="text_5">
      <!-- −100 -->
      <g transform="translate(180.886258 165.701751) scale(0.1 -0.1)">
       <defs>
        <path id="DejaVuSans-14" d="M 794 531
L 1825 531
L 1825 4091
L 703 3866
L 703 4441
L 1819 4666
L 2450 4666
L 2450 531
L 3481 531
L 3481 0
L 794 0
L 794 531
z
" transform="scale(0.015625)"/>
       </defs>
       <use xlink:href="#DejaVuSans-c9c"/>
       <use xlink:href="#DejaVuSans-14" transform="translate(83.796875 0)"/>
       <use xlink:href="#DejaVuSans-13" transform="translate(147.421875 0)"/>
       <use xlink:href="#DejaVuSans-13" transform="translate(211.046875 0)"/>
      </g>
     </g>
    </g>
    <g id="xtick_6">
     <g id="line2d_11">
      <path d="M 228.095792 151.104095
L 228.095792 72.815905
" clip-path="url(#p82fe284e9d)" style="fill: none; stroke: #b0b0b0; stroke-opacity: 0.25; stroke-width: 0.8; stroke-linecap: square"/>
     </g>
     <g id="line2d_12">
      <g>
       <use xlink:href="#me8ba2b3e14" x="228.095792" y="151.104095" style="stroke: #000000; stroke-width: 0.8"/>
      </g>
     </g>
     <g id="text_6">
      <!-- 0 -->
      <g transform="translate(224.914542 165.701751) scale(0.1 -0.1)">
       <use xlink:href="#DejaVuSans-13"/>
      </g>
     </g>
    </g>
    <g id="xtick_7">
     <g id="line2d_13">
      <path d="M 261.571733 151.104095
L 261.571733 72.815905
" clip-path="url(#p82fe284e9d)" style="fill: none; stroke: #b0b0b0; stroke-opacity: 0.25; stroke-width: 0.8; stroke-linecap: square"/>
     </g>
     <g id="line2d_14">
      <g>
       <use xlink:href="#me8ba2b3e14" x="261.571733" y="151.104095" style="stroke: #000000; stroke-width: 0.8"/>
      </g>
     </g>
     <g id="text_7">
      <!-- 100 -->
      <g transform="translate(252.027983 165.701751) scale(0.1 -0.1)">
       <use xlink:href="#DejaVuSans-14"/>
       <use xlink:href="#DejaVuSans-13" transform="translate(63.625 0)"/>
       <use xlink:href="#DejaVuSans-13" transform="translate(127.25 0)"/>
      </g>
     </g>
    </g>
    <g id="xtick_8">
     <g id="line2d_15">
      <path d="M 295.047674 151.104095
L 295.047674 72.815905
" clip-path="url(#p82fe284e9d)" style="fill: none; stroke: #b0b0b0; stroke-opacity: 0.25; stroke-width: 0.8; stroke-linecap: square"/>
     </g>
     <g id="line2d_16">
      <g>
       <use xlink:href="#me8ba2b3e14" x="295.047674" y="151.104095" style="stroke: #000000; stroke-width: 0.8"/>
      </g>
     </g>
     <g id="text_8">
      <!-- 200 -->
      <g transform="translate(285.503924 165.701751) scale(0.1 -0.1)">
       <use xlink:href="#DejaVuSans-15"/>
       <use xlink:href="#DejaVuSans-13" transform="translate(63.625 0)"/>
       <use xlink:href="#DejaVuSans-13" transform="translate(127.25 0)"/>
      </g>
     </g>
    </g>
    <g id="xtick_9">
     <g id="line2d_17">
      <path d="M 328.523614 151.104095
L 328.523614 72.815905
" clip-path="url(#p82fe284e9d)" style="fill: none; stroke: #b0b0b0; stroke-opacity: 0.25; stroke-width: 0.8; stroke-linecap: square"/>
     </g>
     <g id="line2d_18">
      <g>
       <use xlink:href="#me8ba2b3e14" x="328.523614" y="151.104095" style="stroke: #000000; stroke-width: 0.8"/>
      </g>
     </g>
     <g id="text_9">
      <!-- 300 -->
      <g transform="translate(318.979864 165.701751) scale(0.1 -0.1)">
       <use xlink:href="#DejaVuSans-16"/>
       <use xlink:href="#DejaVuSans-13" transform="translate(63.625 0)"/>
       <use xlink:href="#DejaVuSans-13" transform="translate(127.25 0)"/>
      </g>
     </g>
    </g>
    <g id="text_10">
     <!-- projected x from initial tip (µm) -->
     <g transform="translate(116.623851 179.702532) scale(0.1 -0.1)">
      <defs>
       <path id="DejaVuSans-53" d="M 1159 525
L 1159 -1331
L 581 -1331
L 581 3500
L 1159 3500
L 1159 2969
Q 1341 3281 1617 3432
Q 1894 3584 2278 3584
Q 2916 3584 3314 3078
Q 3713 2572 3713 1747
Q 3713 922 3314 415
Q 2916 -91 2278 -91
Q 1894 -91 1617 61
Q 1341 213 1159 525
z
M 3116 1747
Q 3116 2381 2855 2742
Q 2594 3103 2138 3103
Q 1681 3103 1420 2742
Q 1159 2381 1159 1747
Q 1159 1113 1420 752
Q 1681 391 2138 391
Q 2594 391 2855 752
Q 3116 1113 3116 1747
z
" transform="scale(0.015625)"/>
       <path id="DejaVuSans-55" d="M 2631 2963
Q 2534 3019 2420 3045
Q 2306 3072 2169 3072
Q 1681 3072 1420 2755
Q 1159 2438 1159 1844
L 1159 0
L 581 0
L 581 3500
L 1159 3500
L 1159 2956
Q 1341 3275 1631 3429
Q 1922 3584 2338 3584
Q 2397 3584 2469 3576
Q 2541 3569 2628 3553
L 2631 2963
z
" transform="scale(0.015625)"/>
       <path id="DejaVuSans-52" d="M 1959 3097
Q 1497 3097 1228 2736
Q 959 2375 959 1747
Q 959 1119 1226 758
Q 1494 397 1959 397
Q 2419 397 2687 759
Q 2956 1122 2956 1747
Q 2956 2369 2687 2733
Q 2419 3097 1959 3097
z
M 1959 3584
Q 2709 3584 3137 3096
Q 3566 2609 3566 1747
Q 3566 888 3137 398
Q 2709 -91 1959 -91
Q 1206 -91 779 398
Q 353 888 353 1747
Q 353 2609 779 3096
Q 1206 3584 1959 3584
z
" transform="scale(0.015625)"/>
       <path id="DejaVuSans-4d" d="M 603 3500
L 1178 3500
L 1178 -63
Q 1178 -731 923 -1031
Q 669 -1331 103 -1331
L -116 -1331
L -116 -844
L 38 -844
Q 366 -844 484 -692
Q 603 -541 603 -63
L 603 3500
z
M 603 4863
L 1178 4863
L 1178 4134
L 603 4134
L 603 4863
z
" transform="scale(0.015625)"/>
       <path id="DejaVuSans-48" d="M 3597 1894
L 3597 1613
L 953 1613
Q 991 1019 1311 708
Q 1631 397 2203 397
Q 2534 397 2845 478
Q 3156 559 3463 722
L 3463 178
Q 3153 47 2828 -22
Q 2503 -91 2169 -91
Q 1331 -91 842 396
Q 353 884 353 1716
Q 353 2575 817 3079
Q 1281 3584 2069 3584
Q 2775 3584 3186 3129
Q 3597 2675 3597 1894
z
M 3022 2063
Q 3016 2534 2758 2815
Q 2500 3097 2075 3097
Q 1594 3097 1305 2825
Q 1016 2553 972 2059
L 3022 2063
z
" transform="scale(0.015625)"/>
       <path id="DejaVuSans-46" d="M 3122 3366
L 3122 2828
Q 2878 2963 2633 3030
Q 2388 3097 2138 3097
Q 1578 3097 1268 2742
Q 959 2388 959 1747
Q 959 1106 1268 751
Q 1578 397 2138 397
Q 2388 397 2633 464
Q 2878 531 3122 666
L 3122 134
Q 2881 22 2623 -34
Q 2366 -91 2075 -91
Q 1284 -91 818 406
Q 353 903 353 1747
Q 353 2603 823 3093
Q 1294 3584 2113 3584
Q 2378 3584 2631 3529
Q 2884 3475 3122 3366
z
" transform="scale(0.015625)"/>
       <path id="DejaVuSans-57" d="M 1172 4494
L 1172 3500
L 2356 3500
L 2356 3053
L 1172 3053
L 1172 1153
Q 1172 725 1289 603
Q 1406 481 1766 481
L 2356 481
L 2356 0
L 1766 0
Q 1100 0 847 248
Q 594 497 594 1153
L 594 3053
L 172 3053
L 172 3500
L 594 3500
L 594 4494
L 1172 4494
z
" transform="scale(0.015625)"/>
       <path id="DejaVuSans-47" d="M 2906 2969
L 2906 4863
L 3481 4863
L 3481 0
L 2906 0
L 2906 525
Q 2725 213 2448 61
Q 2172 -91 1784 -91
Q 1150 -91 751 415
Q 353 922 353 1747
Q 353 2572 751 3078
Q 1150 3584 1784 3584
Q 2172 3584 2448 3432
Q 2725 3281 2906 2969
z
M 947 1747
Q 947 1113 1208 752
Q 1469 391 1925 391
Q 2381 391 2643 752
Q 2906 1113 2906 1747
Q 2906 2381 2643 2742
Q 2381 3103 1925 3103
Q 1469 3103 1208 2742
Q 947 2381 947 1747
z
" transform="scale(0.015625)"/>
       <path id="DejaVuSans-3" transform="scale(0.015625)"/>
       <path id="DejaVuSans-5b" d="M 3513 3500
L 2247 1797
L 3578 0
L 2900 0
L 1881 1375
L 863 0
L 184 0
L 1544 1831
L 300 3500
L 978 3500
L 1906 2253
L 2834 3500
L 3513 3500
z
" transform="scale(0.015625)"/>
       <path id="DejaVuSans-49" d="M 2375 4863
L 2375 4384
L 1825 4384
Q 1516 4384 1395 4259
Q 1275 4134 1275 3809
L 1275 3500
L 2222 3500
L 2222 3053
L 1275 3053
L 1275 0
L 697 0
L 697 3053
L 147 3053
L 147 3500
L 697 3500
L 697 3744
Q 697 4328 969 4595
Q 1241 4863 1831 4863
L 2375 4863
z
" transform="scale(0.015625)"/>
       <path id="DejaVuSans-50" d="M 3328 2828
Q 3544 3216 3844 3400
Q 4144 3584 4550 3584
Q 5097 3584 5394 3201
Q 5691 2819 5691 2113
L 5691 0
L 5113 0
L 5113 2094
Q 5113 2597 4934 2840
Q 4756 3084 4391 3084
Q 3944 3084 3684 2787
Q 3425 2491 3425 1978
L 3425 0
L 2847 0
L 2847 2094
Q 2847 2600 2669 2842
Q 2491 3084 2119 3084
Q 1678 3084 1418 2786
Q 1159 2488 1159 1978
L 1159 0
L 581 0
L 581 3500
L 1159 3500
L 1159 2956
Q 1356 3278 1631 3431
Q 1906 3584 2284 3584
Q 2666 3584 2933 3390
Q 3200 3197 3328 2828
z
" transform="scale(0.015625)"/>
       <path id="DejaVuSans-4c" d="M 603 3500
L 1178 3500
L 1178 0
L 603 0
L 603 3500
z
M 603 4863
L 1178 4863
L 1178 4134
L 603 4134
L 603 4863
z
" transform="scale(0.015625)"/>
       <path id="DejaVuSans-51" d="M 3513 2113
L 3513 0
L 2938 0
L 2938 2094
Q 2938 2591 2744 2837
Q 2550 3084 2163 3084
Q 1697 3084 1428 2787
Q 1159 2491 1159 1978
L 1159 0
L 581 0
L 581 3500
L 1159 3500
L 1159 2956
Q 1366 3272 1645 3428
Q 1925 3584 2291 3584
Q 2894 3584 3203 3211
Q 3513 2838 3513 2113
z
" transform="scale(0.015625)"/>
       <path id="DejaVuSans-44" d="M 2194 1759
Q 1497 1759 1228 1600
Q 959 1441 959 1056
Q 959 750 1161 570
Q 1363 391 1709 391
Q 2188 391 2477 730
Q 2766 1069 2766 1631
L 2766 1759
L 2194 1759
z
M 3341 1997
L 3341 0
L 2766 0
L 2766 531
Q 2569 213 2275 61
Q 1981 -91 1556 -91
Q 1019 -91 701 211
Q 384 513 384 1019
Q 384 1609 779 1909
Q 1175 2209 1959 2209
L 2766 2209
L 2766 2266
Q 2766 2663 2505 2880
Q 2244 3097 1772 3097
Q 1472 3097 1187 3025
Q 903 2953 641 2809
L 641 3341
Q 956 3463 1253 3523
Q 1550 3584 1831 3584
Q 2591 3584 2966 3190
Q 3341 2797 3341 1997
z
" transform="scale(0.015625)"/>
       <path id="DejaVuSans-4f" d="M 603 4863
L 1178 4863
L 1178 0
L 603 0
L 603 4863
z
" transform="scale(0.015625)"/>
       <path id="DejaVuSans-b" d="M 1984 4856
Q 1566 4138 1362 3434
Q 1159 2731 1159 2009
Q 1159 1288 1364 580
Q 1569 -128 1984 -844
L 1484 -844
Q 1016 -109 783 600
Q 550 1309 550 2009
Q 550 2706 781 3412
Q 1013 4119 1484 4856
L 1984 4856
z
" transform="scale(0.015625)"/>
       <path id="DejaVuSans-77" d="M 544 -1331
L 544 3500
L 1119 3500
L 1119 1325
Q 1119 872 1334 640
Q 1550 409 1972 409
Q 2434 409 2667 671
Q 2900 934 2900 1459
L 2900 3500
L 3475 3500
L 3475 806
Q 3475 619 3529 530
Q 3584 441 3700 441
Q 3728 441 3778 458
Q 3828 475 3916 513
L 3916 50
Q 3788 -22 3673 -56
Q 3559 -91 3450 -91
Q 3234 -91 3106 31
Q 2978 153 2931 403
Q 2775 156 2548 32
Q 2322 -91 2016 -91
Q 1697 -91 1473 31
Q 1250 153 1119 397
L 1119 -1331
L 544 -1331
z
" transform="scale(0.015625)"/>
       <path id="DejaVuSans-c" d="M 513 4856
L 1013 4856
Q 1481 4119 1714 3412
Q 1947 2706 1947 2009
Q 1947 1309 1714 600
Q 1481 -109 1013 -844
L 513 -844
Q 928 -128 1133 580
Q 1338 1288 1338 2009
Q 1338 2731 1133 3434
Q 928 4138 513 4856
z
" transform="scale(0.015625)"/>
      </defs>
      <use xlink:href="#DejaVuSans-53"/>
      <use xlink:href="#DejaVuSans-55" transform="translate(63.484375 0)"/>
      <use xlink:href="#DejaVuSans-52" transform="translate(102.390625 0)"/>
      <use xlink:href="#DejaVuSans-4d" transform="translate(163.578125 0)"/>
      <use xlink:href="#DejaVuSans-48" transform="translate(191.359375 0)"/>
      <use xlink:href="#DejaVuSans-46" transform="translate(252.890625 0)"/>
      <use xlink:href="#DejaVuSans-57" transform="translate(307.875 0)"/>
      <use xlink:href="#DejaVuSans-48" transform="translate(347.078125 0)"/>
      <use xlink:href="#DejaVuSans-47" transform="translate(408.609375 0)"/>
      <use xlink:href="#DejaVuSans-3" transform="translate(472.09375 0)"/>
      <use xlink:href="#DejaVuSans-5b" transform="translate(503.875 0)"/>
      <use xlink:href="#DejaVuSans-3" transform="translate(563.0625 0)"/>
      <use xlink:href="#DejaVuSans-49" transform="translate(594.84375 0)"/>
      <use xlink:href="#DejaVuSans-55" transform="translate(630.046875 0)"/>
      <use xlink:href="#DejaVuSans-52" transform="translate(668.953125 0)"/>
      <use xlink:href="#DejaVuSans-50" transform="translate(730.140625 0)"/>
      <use xlink:href="#DejaVuSans-3" transform="translate(827.546875 0)"/>
      <use xlink:href="#DejaVuSans-4c" transform="translate(859.328125 0)"/>
      <use xlink:href="#DejaVuSans-51" transform="translate(887.109375 0)"/>
      <use xlink:href="#DejaVuSans-4c" transform="translate(950.484375 0)"/>
      <use xlink:href="#DejaVuSans-57" transform="translate(978.265625 0)"/>
      <use xlink:href="#DejaVuSans-4c" transform="translate(1017.46875 0)"/>
      <use xlink:href="#DejaVuSans-44" transform="translate(1045.25 0)"/>
      <use xlink:href="#DejaVuSans-4f" transform="translate(1106.53125 0)"/>
      <use xlink:href="#DejaVuSans-3" transform="translate(1134.3125 0)"/>
      <use xlink:href="#DejaVuSans-57" transform="translate(1166.09375 0)"/>
      <use xlink:href="#DejaVuSans-4c" transform="translate(1205.296875 0)"/>
      <use xlink:href="#DejaVuSans-53" transform="translate(1233.078125 0)"/>
      <use xlink:href="#DejaVuSans-3" transform="translate(1296.5625 0)"/>
      <use xlink:href="#DejaVuSans-b" transform="translate(1328.34375 0)"/>
      <use xlink:href="#DejaVuSans-77" transform="translate(1367.359375 0)"/>
      <use xlink:href="#DejaVuSans-50" transform="translate(1430.984375 0)"/>
      <use xlink:href="#DejaVuSans-c" transform="translate(1528.390625 0)"/>
     </g>
    </g>
   </g>
   <g id="matplotlib.axis_2">
    <g id="ytick_1">
     <g id="line2d_19">
      <path d="M 47.288281 132.866749
L 342.700046 132.866749
" clip-path="url(#p82fe284e9d)" style="fill: none; stroke: #b0b0b0; stroke-opacity: 0.25; stroke-width: 0.8; stroke-linecap: square"/>
     </g>
     <g id="line2d_20">
      <defs>
       <path id="m1f56f20741" d="M 0 0
L -3.5 0
" style="stroke: #000000; stroke-width: 0.8"/>
      </defs>
      <g>
       <use xlink:href="#m1f56f20741" x="47.288281" y="132.866749" style="stroke: #000000; stroke-width: 0.8"/>
      </g>
     </g>
     <g id="text_11">
      <!-- 0 -->
      <g transform="translate(33.925781 136.665577) scale(0.1 -0.1)">
       <use xlink:href="#DejaVuSans-13"/>
      </g>
     </g>
    </g>
    <g id="ytick_2">
     <g id="line2d_21">
      <path d="M 47.288281 99.390808
L 342.700046 99.390808
" clip-path="url(#p82fe284e9d)" style="fill: none; stroke: #b0b0b0; stroke-opacity: 0.25; stroke-width: 0.8; stroke-linecap: square"/>
     </g>
     <g id="line2d_22">
      <g>
       <use xlink:href="#m1f56f20741" x="47.288281" y="99.390808" style="stroke: #000000; stroke-width: 0.8"/>
      </g>
     </g>
     <g id="text_12">
      <!-- 100 -->
      <g transform="translate(21.200781 103.189637) scale(0.1 -0.1)">
       <use xlink:href="#DejaVuSans-14"/>
       <use xlink:href="#DejaVuSans-13" transform="translate(63.625 0)"/>
       <use xlink:href="#DejaVuSans-13" transform="translate(127.25 0)"/>
      </g>
     </g>
    </g>
    <g id="text_13">
     <!-- laboratory y (µm) -->
     <g transform="translate(14.798438 155.89125) rotate(-90) scale(0.1 -0.1)">
      <defs>
       <path id="DejaVuSans-45" d="M 3116 1747
Q 3116 2381 2855 2742
Q 2594 3103 2138 3103
Q 1681 3103 1420 2742
Q 1159 2381 1159 1747
Q 1159 1113 1420 752
Q 1681 391 2138 391
Q 2594 391 2855 752
Q 3116 1113 3116 1747
z
M 1159 2969
Q 1341 3281 1617 3432
Q 1894 3584 2278 3584
Q 2916 3584 3314 3078
Q 3713 2572 3713 1747
Q 3713 922 3314 415
Q 2916 -91 2278 -91
Q 1894 -91 1617 61
Q 1341 213 1159 525
L 1159 0
L 581 0
L 581 4863
L 1159 4863
L 1159 2969
z
" transform="scale(0.015625)"/>
       <path id="DejaVuSans-5c" d="M 2059 -325
Q 1816 -950 1584 -1140
Q 1353 -1331 966 -1331
L 506 -1331
L 506 -850
L 844 -850
Q 1081 -850 1212 -737
Q 1344 -625 1503 -206
L 1606 56
L 191 3500
L 800 3500
L 1894 763
L 2988 3500
L 3597 3500
L 2059 -325
z
" transform="scale(0.015625)"/>
      </defs>
      <use xlink:href="#DejaVuSans-4f"/>
      <use xlink:href="#DejaVuSans-44" transform="translate(27.78125 0)"/>
      <use xlink:href="#DejaVuSans-45" transform="translate(89.0625 0)"/>
      <use xlink:href="#DejaVuSans-52" transform="translate(152.546875 0)"/>
      <use xlink:href="#DejaVuSans-55" transform="translate(213.734375 0)"/>
      <use xlink:href="#DejaVuSans-44" transform="translate(254.84375 0)"/>
      <use xlink:href="#DejaVuSans-57" transform="translate(316.125 0)"/>
      <use xlink:href="#DejaVuSans-52" transform="translate(355.328125 0)"/>
      <use xlink:href="#DejaVuSans-55" transform="translate(416.515625 0)"/>
      <use xlink:href="#DejaVuSans-5c" transform="translate(457.625 0)"/>
      <use xlink:href="#DejaVuSans-3" transform="translate(516.8125 0)"/>
      <use xlink:href="#DejaVuSans-5c" transform="translate(548.59375 0)"/>
      <use xlink:href="#DejaVuSans-3" transform="translate(607.78125 0)"/>
      <use xlink:href="#DejaVuSans-b" transform="translate(639.5625 0)"/>
      <use xlink:href="#DejaVuSans-77" transform="translate(678.578125 0)"/>
      <use xlink:href="#DejaVuSans-50" transform="translate(742.203125 0)"/>
      <use xlink:href="#DejaVuSans-c" transform="translate(839.609375 0)"/>
     </g>
    </g>
   </g>
   <g id="line2d_23">
    <path d="M 60.716089 132.866749
L 228.095792 132.866749
L 229.377995 131.790853
L 230.453891 133.073056
L 231.529787 134.355259
L 232.605683 135.637462
L 233.681579 136.919665
L 234.963782 135.843769
L 236.039678 137.125972
L 237.115574 138.408175
L 238.397777 137.332279
L 239.67998 136.256383
L 240.755876 137.538586
L 242.038079 136.46269
L 243.320282 135.386794
L 244.602485 134.310898
L 245.678381 135.593101
L 246.754277 136.875303
L 247.830173 138.157506
L 248.906069 139.439709
L 250.188271 138.363813
L 251.264167 139.646016
L 252.54637 138.57012
L 253.622266 139.852323
L 254.698162 141.134526
L 255.980365 140.05863
L 257.262568 138.982734
L 258.544771 137.906838
L 259.620667 139.189041
L 260.90287 138.113145
L 262.185073 137.037249
L 263.260969 138.319452
L 264.543172 137.243556
L 265.619068 138.525759
L 266.694964 139.807962
L 267.977167 138.732066
L 269.25937 137.65617
L 270.335266 138.938373
L 271.617469 137.862477
L 272.899672 136.786581
L 274.181874 135.710685
L 275.25777 136.992888
L 276.539973 135.916992
L 277.822176 134.841096
L 278.898072 136.123299
L 280.180275 135.047403
L 281.462478 133.971507
L 282.744681 132.895611
L 284.026884 131.819715
L 285.10278 133.101917
L 286.178676 134.38412
L 287.460879 133.308224
L 288.743082 132.232328
L 289.818978 133.514531
L 290.894874 134.796734
L 291.97077 136.078937
L 293.252973 135.003041
L 294.328869 136.285244
L 295.404765 137.567447
L 296.480661 138.84965
L 297.556557 140.131853
L 298.83876 139.055957
L 300.120962 137.980061
L 301.403165 136.904165
L 302.479061 138.186368
L 303.554957 139.468571
L 304.83716 138.392675
L 305.913056 139.674878
L 307.195259 138.598982
L 308.477462 137.523086
L 309.553358 138.805288
L 310.835561 137.729392
L 312.117764 136.653496
L 313.399967 135.577601
L 314.68217 134.501705
L 315.964373 133.425809
L 317.040269 134.708011
L 318.116165 135.990214
L 319.398368 134.914318
L 320.474264 136.196521
L 321.756467 135.120625
L 322.832362 136.402828
L 323.908258 137.685031
L 324.984154 138.967234
L 326.266357 137.891338
L 327.54856 136.815442
L 328.830763 135.739546
" clip-path="url(#p82fe284e9d)" style="fill: none; stroke: #1f77b4; stroke-width: 2; stroke-linecap: square"/>
   </g>
   <g id="patch_3">
    <path d="M 47.288281 151.104095
L 47.288281 72.815905
" style="fill: none; stroke: #000000; stroke-width: 0.8; stroke-linejoin: miter; stroke-linecap: square"/>
   </g>
   <g id="patch_4">
    <path d="M 342.700046 151.104095
L 342.700046 72.815905
" style="fill: none; stroke: #000000; stroke-width: 0.8; stroke-linejoin: miter; stroke-linecap: square"/>
   </g>
   <g id="patch_5">
    <path d="M 47.288281 151.104095
L 342.700046 151.104095
" style="fill: none; stroke: #000000; stroke-width: 0.8; stroke-linejoin: miter; stroke-linecap: square"/>
   </g>
   <g id="patch_6">
    <path d="M 47.288281 72.815905
L 342.700046 72.815905
" style="fill: none; stroke: #000000; stroke-width: 0.8; stroke-linejoin: miter; stroke-linecap: square"/>
   </g>
   <g id="text_14">
    <!-- branching disabled control -->
    <g transform="translate(114.992601 66.815905) scale(0.12 -0.12)">
     <defs>
      <path id="DejaVuSans-4b" d="M 3513 2113
L 3513 0
L 2938 0
L 2938 2094
Q 2938 2591 2744 2837
Q 2550 3084 2163 3084
Q 1697 3084 1428 2787
Q 1159 2491 1159 1978
L 1159 0
L 581 0
L 581 4863
L 1159 4863
L 1159 2956
Q 1366 3272 1645 3428
Q 1925 3584 2291 3584
Q 2894 3584 3203 3211
Q 3513 2838 3513 2113
z
" transform="scale(0.015625)"/>
      <path id="DejaVuSans-4a" d="M 2906 1791
Q 2906 2416 2648 2759
Q 2391 3103 1925 3103
Q 1463 3103 1205 2759
Q 947 2416 947 1791
Q 947 1169 1205 825
Q 1463 481 1925 481
Q 2391 481 2648 825
Q 2906 1169 2906 1791
z
M 3481 434
Q 3481 -459 3084 -895
Q 2688 -1331 1869 -1331
Q 1566 -1331 1297 -1286
Q 1028 -1241 775 -1147
L 775 -588
Q 1028 -725 1275 -790
Q 1522 -856 1778 -856
Q 2344 -856 2625 -561
Q 2906 -266 2906 331
L 2906 616
Q 2728 306 2450 153
Q 2172 0 1784 0
Q 1141 0 747 490
Q 353 981 353 1791
Q 353 2603 747 3093
Q 1141 3584 1784 3584
Q 2172 3584 2450 3431
Q 2728 3278 2906 2969
L 2906 3500
L 3481 3500
L 3481 434
z
" transform="scale(0.015625)"/>
      <path id="DejaVuSans-56" d="M 2834 3397
L 2834 2853
Q 2591 2978 2328 3040
Q 2066 3103 1784 3103
Q 1356 3103 1142 2972
Q 928 2841 928 2578
Q 928 2378 1081 2264
Q 1234 2150 1697 2047
L 1894 2003
Q 2506 1872 2764 1633
Q 3022 1394 3022 966
Q 3022 478 2636 193
Q 2250 -91 1575 -91
Q 1294 -91 989 -36
Q 684 19 347 128
L 347 722
Q 666 556 975 473
Q 1284 391 1588 391
Q 1994 391 2212 530
Q 2431 669 2431 922
Q 2431 1156 2273 1281
Q 2116 1406 1581 1522
L 1381 1569
Q 847 1681 609 1914
Q 372 2147 372 2553
Q 372 3047 722 3315
Q 1072 3584 1716 3584
Q 2034 3584 2315 3537
Q 2597 3491 2834 3397
z
" transform="scale(0.015625)"/>
     </defs>
     <use xlink:href="#DejaVuSans-45"/>
     <use xlink:href="#DejaVuSans-55" transform="translate(63.484375 0)"/>
     <use xlink:href="#DejaVuSans-44" transform="translate(104.59375 0)"/>
     <use xlink:href="#DejaVuSans-51" transform="translate(165.875 0)"/>
     <use xlink:href="#DejaVuSans-46" transform="translate(229.25 0)"/>
     <use xlink:href="#DejaVuSans-4b" transform="translate(284.234375 0)"/>
     <use xlink:href="#DejaVuSans-4c" transform="translate(347.609375 0)"/>
     <use xlink:href="#DejaVuSans-51" transform="translate(375.390625 0)"/>
     <use xlink:href="#DejaVuSans-4a" transform="translate(438.765625 0)"/>
     <use xlink:href="#DejaVuSans-3" transform="translate(502.25 0)"/>
     <use xlink:href="#DejaVuSans-47" transform="translate(534.03125 0)"/>
     <use xlink:href="#DejaVuSans-4c" transform="translate(597.515625 0)"/>
     <use xlink:href="#DejaVuSans-56" transform="translate(625.296875 0)"/>
     <use xlink:href="#DejaVuSans-44" transform="translate(677.390625 0)"/>
     <use xlink:href="#DejaVuSans-45" transform="translate(738.671875 0)"/>
     <use xlink:href="#DejaVuSans-4f" transform="translate(802.15625 0)"/>
     <use xlink:href="#DejaVuSans-48" transform="translate(829.9375 0)"/>
     <use xlink:href="#DejaVuSans-47" transform="translate(891.46875 0)"/>
     <use xlink:href="#DejaVuSans-3" transform="translate(954.953125 0)"/>
     <use xlink:href="#DejaVuSans-46" transform="translate(986.734375 0)"/>
     <use xlink:href="#DejaVuSans-52" transform="translate(1041.71875 0)"/>
     <use xlink:href="#DejaVuSans-51" transform="translate(1102.90625 0)"/>
     <use xlink:href="#DejaVuSans-57" transform="translate(1166.28125 0)"/>
     <use xlink:href="#DejaVuSans-55" transform="translate(1205.484375 0)"/>
     <use xlink:href="#DejaVuSans-52" transform="translate(1244.390625 0)"/>
     <use xlink:href="#DejaVuSans-4f" transform="translate(1305.578125 0)"/>
    </g>
   </g>
   <g id="legend_1">
    <g id="patch_7">
     <path d="M 250.815202 88.916452
L 337.800046 88.916452
Q 339.200046 88.916452 339.200046 87.516452
L 339.200046 77.715905
Q 339.200046 76.315905 337.800046 76.315905
L 250.815202 76.315905
Q 249.415202 76.315905 249.415202 77.715905
L 249.415202 87.516452
Q 249.415202 88.916452 250.815202 88.916452
z
" style="fill: #ffffff; opacity: 0.8; stroke: #cccccc; stroke-linejoin: miter"/>
    </g>
    <g id="line2d_24">
     <path d="M 252.215202 81.984812
L 259.215202 81.984812
L 266.215202 81.984812
" style="fill: none; stroke: #1f77b4; stroke-width: 2; stroke-linecap: square"/>
    </g>
    <g id="text_15">
     <!-- b0000000 (active) -->
     <g transform="translate(271.815202 84.434812) scale(0.07 -0.07)">
      <defs>
       <path id="DejaVuSans-59" d="M 191 3500
L 800 3500
L 1894 563
L 2988 3500
L 3597 3500
L 2284 0
L 1503 0
L 191 3500
z
" transform="scale(0.015625)"/>
      </defs>
      <use xlink:href="#DejaVuSans-45"/>
      <use xlink:href="#DejaVuSans-13" transform="translate(63.484375 0)"/>
      <use xlink:href="#DejaVuSans-13" transform="translate(127.109375 0)"/>
      <use xlink:href="#DejaVuSans-13" transform="translate(190.734375 0)"/>
      <use xlink:href="#DejaVuSans-13" transform="translate(254.359375 0)"/>
      <use xlink:href="#DejaVuSans-13" transform="translate(317.984375 0)"/>
      <use xlink:href="#DejaVuSans-13" transform="translate(381.609375 0)"/>
      <use xlink:href="#DejaVuSans-13" transform="translate(445.234375 0)"/>
      <use xlink:href="#DejaVuSans-3" transform="translate(508.859375 0)"/>
      <use xlink:href="#DejaVuSans-b" transform="translate(540.640625 0)"/>
      <use xlink:href="#DejaVuSans-44" transform="translate(579.65625 0)"/>
      <use xlink:href="#DejaVuSans-46" transform="translate(640.9375 0)"/>
      <use xlink:href="#DejaVuSans-57" transform="translate(695.921875 0)"/>
      <use xlink:href="#DejaVuSans-4c" transform="translate(735.125 0)"/>
      <use xlink:href="#DejaVuSans-59" transform="translate(762.90625 0)"/>
      <use xlink:href="#DejaVuSans-48" transform="translate(822.09375 0)"/>
      <use xlink:href="#DejaVuSans-c" transform="translate(883.625 0)"/>
     </g>
    </g>
   </g>
  </g>
  <g id="axes_2">
   <g id="patch_8">
    <path d="M 401.782399 151.104095
L 697.194164 151.104095
L 697.194164 72.815905
L 401.782399 72.815905
z
" style="fill: #ffffff"/>
   </g>
   <g id="matplotlib.axis_3">
    <g id="xtick_10">
     <g id="line2d_25">
      <path d="M 415.210206 151.104095
L 415.210206 72.815905
" clip-path="url(#pfe0131476f)" style="fill: none; stroke: #b0b0b0; stroke-opacity: 0.25; stroke-width: 0.8; stroke-linecap: square"/>
     </g>
     <g id="line2d_26">
      <g>
       <use xlink:href="#me8ba2b3e14" x="415.210206" y="151.104095" style="stroke: #000000; stroke-width: 0.8"/>
      </g>
     </g>
     <g id="text_16">
      <!-- −500 -->
      <g transform="translate(401.476613 165.701751) scale(0.1 -0.1)">
       <use xlink:href="#DejaVuSans-c9c"/>
       <use xlink:href="#DejaVuSans-18" transform="translate(83.796875 0)"/>
       <use xlink:href="#DejaVuSans-13" transform="translate(147.421875 0)"/>
       <use xlink:href="#DejaVuSans-13" transform="translate(211.046875 0)"/>
      </g>
     </g>
    </g>
    <g id="xtick_11">
     <g id="line2d_27">
      <path d="M 448.686147 151.104095
L 448.686147 72.815905
" clip-path="url(#pfe0131476f)" style="fill: none; stroke: #b0b0b0; stroke-opacity: 0.25; stroke-width: 0.8; stroke-linecap: square"/>
     </g>
     <g id="line2d_28">
      <g>
       <use xlink:href="#me8ba2b3e14" x="448.686147" y="151.104095" style="stroke: #000000; stroke-width: 0.8"/>
      </g>
     </g>
     <g id="text_17">
      <!-- −400 -->
      <g transform="translate(434.952553 165.701751) scale(0.1 -0.1)">
       <use xlink:href="#DejaVuSans-c9c"/>
       <use xlink:href="#DejaVuSans-17" transform="translate(83.796875 0)"/>
       <use xlink:href="#DejaVuSans-13" transform="translate(147.421875 0)"/>
       <use xlink:href="#DejaVuSans-13" transform="translate(211.046875 0)"/>
      </g>
     </g>
    </g>
    <g id="xtick_12">
     <g id="line2d_29">
      <path d="M 482.162088 151.104095
L 482.162088 72.815905
" clip-path="url(#pfe0131476f)" style="fill: none; stroke: #b0b0b0; stroke-opacity: 0.25; stroke-width: 0.8; stroke-linecap: square"/>
     </g>
     <g id="line2d_30">
      <g>
       <use xlink:href="#me8ba2b3e14" x="482.162088" y="151.104095" style="stroke: #000000; stroke-width: 0.8"/>
      </g>
     </g>
     <g id="text_18">
      <!-- −300 -->
      <g transform="translate(468.428494 165.701751) scale(0.1 -0.1)">
       <use xlink:href="#DejaVuSans-c9c"/>
       <use xlink:href="#DejaVuSans-16" transform="translate(83.796875 0)"/>
       <use xlink:href="#DejaVuSans-13" transform="translate(147.421875 0)"/>
       <use xlink:href="#DejaVuSans-13" transform="translate(211.046875 0)"/>
      </g>
     </g>
    </g>
    <g id="xtick_13">
     <g id="line2d_31">
      <path d="M 515.638028 151.104095
L 515.638028 72.815905
" clip-path="url(#pfe0131476f)" style="fill: none; stroke: #b0b0b0; stroke-opacity: 0.25; stroke-width: 0.8; stroke-linecap: square"/>
     </g>
     <g id="line2d_32">
      <g>
       <use xlink:href="#me8ba2b3e14" x="515.638028" y="151.104095" style="stroke: #000000; stroke-width: 0.8"/>
      </g>
     </g>
     <g id="text_19">
      <!-- −200 -->
      <g transform="translate(501.904435 165.701751) scale(0.1 -0.1)">
       <use xlink:href="#DejaVuSans-c9c"/>
       <use xlink:href="#DejaVuSans-15" transform="translate(83.796875 0)"/>
       <use xlink:href="#DejaVuSans-13" transform="translate(147.421875 0)"/>
       <use xlink:href="#DejaVuSans-13" transform="translate(211.046875 0)"/>
      </g>
     </g>
    </g>
    <g id="xtick_14">
     <g id="line2d_33">
      <path d="M 549.113969 151.104095
L 549.113969 72.815905
" clip-path="url(#pfe0131476f)" style="fill: none; stroke: #b0b0b0; stroke-opacity: 0.25; stroke-width: 0.8; stroke-linecap: square"/>
     </g>
     <g id="line2d_34">
      <g>
       <use xlink:href="#me8ba2b3e14" x="549.113969" y="151.104095" style="stroke: #000000; stroke-width: 0.8"/>
      </g>
     </g>
     <g id="text_20">
      <!-- −100 -->
      <g transform="translate(535.380375 165.701751) scale(0.1 -0.1)">
       <use xlink:href="#DejaVuSans-c9c"/>
       <use xlink:href="#DejaVuSans-14" transform="translate(83.796875 0)"/>
       <use xlink:href="#DejaVuSans-13" transform="translate(147.421875 0)"/>
       <use xlink:href="#DejaVuSans-13" transform="translate(211.046875 0)"/>
      </g>
     </g>
    </g>
    <g id="xtick_15">
     <g id="line2d_35">
      <path d="M 582.58991 151.104095
L 582.58991 72.815905
" clip-path="url(#pfe0131476f)" style="fill: none; stroke: #b0b0b0; stroke-opacity: 0.25; stroke-width: 0.8; stroke-linecap: square"/>
     </g>
     <g id="line2d_36">
      <g>
       <use xlink:href="#me8ba2b3e14" x="582.58991" y="151.104095" style="stroke: #000000; stroke-width: 0.8"/>
      </g>
     </g>
     <g id="text_21">
      <!-- 0 -->
      <g transform="translate(579.40866 165.701751) scale(0.1 -0.1)">
       <use xlink:href="#DejaVuSans-13"/>
      </g>
     </g>
    </g>
    <g id="xtick_16">
     <g id="line2d_37">
      <path d="M 616.065851 151.104095
L 616.065851 72.815905
" clip-path="url(#pfe0131476f)" style="fill: none; stroke: #b0b0b0; stroke-opacity: 0.25; stroke-width: 0.8; stroke-linecap: square"/>
     </g>
     <g id="line2d_38">
      <g>
       <use xlink:href="#me8ba2b3e14" x="616.065851" y="151.104095" style="stroke: #000000; stroke-width: 0.8"/>
      </g>
     </g>
     <g id="text_22">
      <!-- 100 -->
      <g transform="translate(606.522101 165.701751) scale(0.1 -0.1)">
       <use xlink:href="#DejaVuSans-14"/>
       <use xlink:href="#DejaVuSans-13" transform="translate(63.625 0)"/>
       <use xlink:href="#DejaVuSans-13" transform="translate(127.25 0)"/>
      </g>
     </g>
    </g>
    <g id="xtick_17">
     <g id="line2d_39">
      <path d="M 649.541791 151.104095
L 649.541791 72.815905
" clip-path="url(#pfe0131476f)" style="fill: none; stroke: #b0b0b0; stroke-opacity: 0.25; stroke-width: 0.8; stroke-linecap: square"/>
     </g>
     <g id="line2d_40">
      <g>
       <use xlink:href="#me8ba2b3e14" x="649.541791" y="151.104095" style="stroke: #000000; stroke-width: 0.8"/>
      </g>
     </g>
     <g id="text_23">
      <!-- 200 -->
      <g transform="translate(639.998041 165.701751) scale(0.1 -0.1)">
       <use xlink:href="#DejaVuSans-15"/>
       <use xlink:href="#DejaVuSans-13" transform="translate(63.625 0)"/>
       <use xlink:href="#DejaVuSans-13" transform="translate(127.25 0)"/>
      </g>
     </g>
    </g>
    <g id="xtick_18">
     <g id="line2d_41">
      <path d="M 683.017732 151.104095
L 683.017732 72.815905
" clip-path="url(#pfe0131476f)" style="fill: none; stroke: #b0b0b0; stroke-opacity: 0.25; stroke-width: 0.8; stroke-linecap: square"/>
     </g>
     <g id="line2d_42">
      <g>
       <use xlink:href="#me8ba2b3e14" x="683.017732" y="151.104095" style="stroke: #000000; stroke-width: 0.8"/>
      </g>
     </g>
     <g id="text_24">
      <!-- 300 -->
      <g transform="translate(673.473982 165.701751) scale(0.1 -0.1)">
       <use xlink:href="#DejaVuSans-16"/>
       <use xlink:href="#DejaVuSans-13" transform="translate(63.625 0)"/>
       <use xlink:href="#DejaVuSans-13" transform="translate(127.25 0)"/>
      </g>
     </g>
    </g>
    <g id="text_25">
     <!-- projected x from initial tip (µm) -->
     <g transform="translate(471.117969 179.702532) scale(0.1 -0.1)">
      <use xlink:href="#DejaVuSans-53"/>
      <use xlink:href="#DejaVuSans-55" transform="translate(63.484375 0)"/>
      <use xlink:href="#DejaVuSans-52" transform="translate(102.390625 0)"/>
      <use xlink:href="#DejaVuSans-4d" transform="translate(163.578125 0)"/>
      <use xlink:href="#DejaVuSans-48" transform="translate(191.359375 0)"/>
      <use xlink:href="#DejaVuSans-46" transform="translate(252.890625 0)"/>
      <use xlink:href="#DejaVuSans-57" transform="translate(307.875 0)"/>
      <use xlink:href="#DejaVuSans-48" transform="translate(347.078125 0)"/>
      <use xlink:href="#DejaVuSans-47" transform="translate(408.609375 0)"/>
      <use xlink:href="#DejaVuSans-3" transform="translate(472.09375 0)"/>
      <use xlink:href="#DejaVuSans-5b" transform="translate(503.875 0)"/>
      <use xlink:href="#DejaVuSans-3" transform="translate(563.0625 0)"/>
      <use xlink:href="#DejaVuSans-49" transform="translate(594.84375 0)"/>
      <use xlink:href="#DejaVuSans-55" transform="translate(630.046875 0)"/>
      <use xlink:href="#DejaVuSans-52" transform="translate(668.953125 0)"/>
      <use xlink:href="#DejaVuSans-50" transform="translate(730.140625 0)"/>
      <use xlink:href="#DejaVuSans-3" transform="translate(827.546875 0)"/>
      <use xlink:href="#DejaVuSans-4c" transform="translate(859.328125 0)"/>
      <use xlink:href="#DejaVuSans-51" transform="translate(887.109375 0)"/>
      <use xlink:href="#DejaVuSans-4c" transform="translate(950.484375 0)"/>
      <use xlink:href="#DejaVuSans-57" transform="translate(978.265625 0)"/>
      <use xlink:href="#DejaVuSans-4c" transform="translate(1017.46875 0)"/>
      <use xlink:href="#DejaVuSans-44" transform="translate(1045.25 0)"/>
      <use xlink:href="#DejaVuSans-4f" transform="translate(1106.53125 0)"/>
      <use xlink:href="#DejaVuSans-3" transform="translate(1134.3125 0)"/>
      <use xlink:href="#DejaVuSans-57" transform="translate(1166.09375 0)"/>
      <use xlink:href="#DejaVuSans-4c" transform="translate(1205.296875 0)"/>
      <use xlink:href="#DejaVuSans-53" transform="translate(1233.078125 0)"/>
      <use xlink:href="#DejaVuSans-3" transform="translate(1296.5625 0)"/>
      <use xlink:href="#DejaVuSans-b" transform="translate(1328.34375 0)"/>
      <use xlink:href="#DejaVuSans-77" transform="translate(1367.359375 0)"/>
      <use xlink:href="#DejaVuSans-50" transform="translate(1430.984375 0)"/>
      <use xlink:href="#DejaVuSans-c" transform="translate(1528.390625 0)"/>
     </g>
    </g>
   </g>
   <g id="matplotlib.axis_4">
    <g id="ytick_3">
     <g id="line2d_43">
      <path d="M 401.782399 132.866749
L 697.194164 132.866749
" clip-path="url(#pfe0131476f)" style="fill: none; stroke: #b0b0b0; stroke-opacity: 0.25; stroke-width: 0.8; stroke-linecap: square"/>
     </g>
     <g id="line2d_44">
      <g>
       <use xlink:href="#m1f56f20741" x="401.782399" y="132.866749" style="stroke: #000000; stroke-width: 0.8"/>
      </g>
     </g>
    </g>
    <g id="ytick_4">
     <g id="line2d_45">
      <path d="M 401.782399 99.390808
L 697.194164 99.390808
" clip-path="url(#pfe0131476f)" style="fill: none; stroke: #b0b0b0; stroke-opacity: 0.25; stroke-width: 0.8; stroke-linecap: square"/>
     </g>
     <g id="line2d_46">
      <g>
       <use xlink:href="#m1f56f20741" x="401.782399" y="99.390808" style="stroke: #000000; stroke-width: 0.8"/>
      </g>
     </g>
    </g>
   </g>
   <g id="line2d_47">
    <path d="M 415.210206 132.866749
L 582.58991 132.866749
L 583.872113 131.790853
L 584.948009 133.073056
L 586.023905 134.355259
L 587.099801 135.637462
L 588.175697 136.919665
L 589.4579 135.843769
L 590.533796 137.125972
L 591.609692 138.408175
L 592.891895 137.332279
L 594.174097 136.256383
L 595.249993 137.538586
L 596.532196 136.46269
L 597.814399 135.386794
L 599.096602 134.310898
L 600.172498 135.593101
L 601.248394 136.875303
L 602.32429 138.157506
L 603.400186 139.439709
L 604.682389 138.363813
L 605.758285 139.646016
L 607.040488 138.57012
L 608.116384 139.852323
" clip-path="url(#pfe0131476f)" style="fill: none; stroke-dasharray: 7.4,3.2; stroke-dashoffset: 0; stroke: #1f77b4; stroke-width: 2"/>
   </g>
   <g id="line2d_48">
    <path d="M 608.116384 139.852323
L 609.19228 141.134526
L 610.268176 142.416729
L 611.344072 143.698932
L 612.419968 144.981135
L 613.495864 146.263338
L 614.57176 147.545541
" clip-path="url(#pfe0131476f)" style="fill: none; stroke: #ff7f0e; stroke-width: 2; stroke-linecap: square"/>
   </g>
   <g id="line2d_49">
    <path d="M 608.116384 139.852323
L 609.398587 138.776427
L 610.68079 137.700531
L 611.962993 136.624635
L 613.245196 135.548739
L 614.527399 134.472843
L 615.809602 133.396947
L 617.091804 132.321051
L 618.374007 131.245155
L 619.65621 130.169259
L 620.938413 129.093363
L 622.220616 128.017467
L 623.502819 126.941571
L 624.785022 125.865675
L 626.067225 124.789779
L 627.349428 123.713883
L 628.631631 122.637987
L 629.913834 121.562091
L 631.196037 120.486195
L 632.478239 119.410299
L 633.760442 118.334403
L 635.042645 117.258507
L 636.324848 116.182611
L 637.607051 115.106715
L 638.889254 114.030819
L 640.171457 112.954923
L 641.45366 111.879027
L 642.735863 110.803131
L 644.018066 109.727235
L 645.300269 108.651339
L 646.582472 107.575443
L 647.864674 106.499547
L 649.146877 105.423651
L 650.42908 104.347755
L 651.711283 103.271859
L 652.993486 102.195963
L 654.275689 101.120067
L 655.557892 100.044171
L 656.840095 98.968275
L 658.122298 97.892379
L 659.404501 96.816483
L 660.686704 95.740587
L 661.968907 94.664691
L 663.251109 93.588795
L 664.533312 92.512899
L 665.815515 91.437003
L 667.097718 90.361107
L 668.379921 89.285211
L 669.662124 88.209315
L 670.944327 87.133419
L 672.22653 86.057523
L 673.508733 84.981627
L 674.790936 83.905731
L 676.073139 82.829835
L 677.355342 81.753939
L 678.637544 80.678043
L 679.919747 79.602147
L 681.20195 78.526251
L 682.484153 77.450355
L 683.766356 76.374459
" clip-path="url(#pfe0131476f)" style="fill: none; stroke: #2ca02c; stroke-width: 2; stroke-linecap: square"/>
   </g>
   <g id="patch_9">
    <path d="M 401.782399 151.104095
L 401.782399 72.815905
" style="fill: none; stroke: #000000; stroke-width: 0.8; stroke-linejoin: miter; stroke-linecap: square"/>
   </g>
   <g id="patch_10">
    <path d="M 697.194164 151.104095
L 697.194164 72.815905
" style="fill: none; stroke: #000000; stroke-width: 0.8; stroke-linejoin: miter; stroke-linecap: square"/>
   </g>
   <g id="patch_11">
    <path d="M 401.782399 151.104095
L 697.194164 151.104095
" style="fill: none; stroke: #000000; stroke-width: 0.8; stroke-linejoin: miter; stroke-linecap: square"/>
   </g>
   <g id="patch_12">
    <path d="M 401.782399 72.815905
L 697.194164 72.815905
" style="fill: none; stroke: #000000; stroke-width: 0.8; stroke-linejoin: miter; stroke-linecap: square"/>
   </g>
   <g id="text_26">
    <!-- branching enabled theta40 -->
    <g transform="translate(467.880781 66.815905) scale(0.12 -0.12)">
     <use xlink:href="#DejaVuSans-45"/>
     <use xlink:href="#DejaVuSans-55" transform="translate(63.484375 0)"/>
     <use xlink:href="#DejaVuSans-44" transform="translate(104.59375 0)"/>
     <use xlink:href="#DejaVuSans-51" transform="translate(165.875 0)"/>
     <use xlink:href="#DejaVuSans-46" transform="translate(229.25 0)"/>
     <use xlink:href="#DejaVuSans-4b" transform="translate(284.234375 0)"/>
     <use xlink:href="#DejaVuSans-4c" transform="translate(347.609375 0)"/>
     <use xlink:href="#DejaVuSans-51" transform="translate(375.390625 0)"/>
     <use xlink:href="#DejaVuSans-4a" transform="translate(438.765625 0)"/>
     <use xlink:href="#DejaVuSans-3" transform="translate(502.25 0)"/>
     <use xlink:href="#DejaVuSans-48" transform="translate(534.03125 0)"/>
     <use xlink:href="#DejaVuSans-51" transform="translate(595.5625 0)"/>
     <use xlink:href="#DejaVuSans-44" transform="translate(658.9375 0)"/>
     <use xlink:href="#DejaVuSans-45" transform="translate(720.21875 0)"/>
     <use xlink:href="#DejaVuSans-4f" transform="translate(783.703125 0)"/>
     <use xlink:href="#DejaVuSans-48" transform="translate(811.484375 0)"/>
     <use xlink:href="#DejaVuSans-47" transform="translate(873.015625 0)"/>
     <use xlink:href="#DejaVuSans-3" transform="translate(936.5 0)"/>
     <use xlink:href="#DejaVuSans-57" transform="translate(968.28125 0)"/>
     <use xlink:href="#DejaVuSans-4b" transform="translate(1007.484375 0)"/>
     <use xlink:href="#DejaVuSans-48" transform="translate(1070.859375 0)"/>
     <use xlink:href="#DejaVuSans-57" transform="translate(1132.390625 0)"/>
     <use xlink:href="#DejaVuSans-44" transform="translate(1171.59375 0)"/>
     <use xlink:href="#DejaVuSans-17" transform="translate(1232.875 0)"/>
     <use xlink:href="#DejaVuSans-13" transform="translate(1296.5 0)"/>
    </g>
   </g>
   <g id="legend_2">
    <g id="patch_13">
     <path d="M 406.682399 109.917546
L 511.180368 109.917546
Q 512.580368 109.917546 512.580368 108.517546
L 512.580368 77.715905
Q 512.580368 76.315905 511.180368 76.315905
L 406.682399 76.315905
Q 405.282399 76.315905 405.282399 77.715905
L 405.282399 108.517546
Q 405.282399 109.917546 406.682399 109.917546
z
" style="fill: #ffffff; opacity: 0.8; stroke: #cccccc; stroke-linejoin: miter"/>
    </g>
    <g id="line2d_50">
     <path d="M 408.082399 81.984812
L 415.082399 81.984812
L 422.082399 81.984812
" style="fill: none; stroke-dasharray: 7.4,3.2; stroke-dashoffset: 0; stroke: #1f77b4; stroke-width: 2"/>
    </g>
    <g id="text_27">
     <!-- b0000000 (terminated) -->
     <g transform="translate(427.682399 84.434812) scale(0.07 -0.07)">
      <use xlink:href="#DejaVuSans-45"/>
      <use xlink:href="#DejaVuSans-13" transform="translate(63.484375 0)"/>
      <use xlink:href="#DejaVuSans-13" transform="translate(127.109375 0)"/>
      <use xlink:href="#DejaVuSans-13" transform="translate(190.734375 0)"/>
      <use xlink:href="#DejaVuSans-13" transform="translate(254.359375 0)"/>
      <use xlink:href="#DejaVuSans-13" transform="translate(317.984375 0)"/>
      <use xlink:href="#DejaVuSans-13" transform="translate(381.609375 0)"/>
      <use xlink:href="#DejaVuSans-13" transform="translate(445.234375 0)"/>
      <use xlink:href="#DejaVuSans-3" transform="translate(508.859375 0)"/>
      <use xlink:href="#DejaVuSans-b" transform="translate(540.640625 0)"/>
      <use xlink:href="#DejaVuSans-57" transform="translate(579.65625 0)"/>
      <use xlink:href="#DejaVuSans-48" transform="translate(618.859375 0)"/>
      <use xlink:href="#DejaVuSans-55" transform="translate(680.390625 0)"/>
      <use xlink:href="#DejaVuSans-50" transform="translate(719.75 0)"/>
      <use xlink:href="#DejaVuSans-4c" transform="translate(817.15625 0)"/>
      <use xlink:href="#DejaVuSans-51" transform="translate(844.9375 0)"/>
      <use xlink:href="#DejaVuSans-44" transform="translate(908.3125 0)"/>
      <use xlink:href="#DejaVuSans-57" transform="translate(969.59375 0)"/>
      <use xlink:href="#DejaVuSans-48" transform="translate(1008.796875 0)"/>
      <use xlink:href="#DejaVuSans-47" transform="translate(1070.328125 0)"/>
      <use xlink:href="#DejaVuSans-c" transform="translate(1133.8125 0)"/>
     </g>
    </g>
    <g id="line2d_51">
     <path d="M 408.082399 92.485358
L 415.082399 92.485358
L 422.082399 92.485358
" style="fill: none; stroke: #ff7f0e; stroke-width: 2; stroke-linecap: square"/>
    </g>
    <g id="text_28">
     <!-- b0fa22bb (active) -->
     <g transform="translate(427.682399 94.935358) scale(0.07 -0.07)">
      <use xlink:href="#DejaVuSans-45"/>
      <use xlink:href="#DejaVuSans-13" transform="translate(63.484375 0)"/>
      <use xlink:href="#DejaVuSans-49" transform="translate(127.109375 0)"/>
      <use xlink:href="#DejaVuSans-44" transform="translate(162.3125 0)"/>
      <use xlink:href="#DejaVuSans-15" transform="translate(223.59375 0)"/>
      <use xlink:href="#DejaVuSans-15" transform="translate(287.21875 0)"/>
      <use xlink:href="#DejaVuSans-45" transform="translate(350.84375 0)"/>
      <use xlink:href="#DejaVuSans-45" transform="translate(414.328125 0)"/>
      <use xlink:href="#DejaVuSans-3" transform="translate(477.8125 0)"/>
      <use xlink:href="#DejaVuSans-b" transform="translate(509.59375 0)"/>
      <use xlink:href="#DejaVuSans-44" transform="translate(548.609375 0)"/>
      <use xlink:href="#DejaVuSans-46" transform="translate(609.890625 0)"/>
      <use xlink:href="#DejaVuSans-57" transform="translate(664.875 0)"/>
      <use xlink:href="#DejaVuSans-4c" transform="translate(704.078125 0)"/>
      <use xlink:href="#DejaVuSans-59" transform="translate(731.859375 0)"/>
      <use xlink:href="#DejaVuSans-48" transform="translate(791.046875 0)"/>
      <use xlink:href="#DejaVuSans-c" transform="translate(852.578125 0)"/>
     </g>
    </g>
    <g id="line2d_52">
     <path d="M 408.082399 102.985905
L 415.082399 102.985905
L 422.082399 102.985905
" style="fill: none; stroke: #2ca02c; stroke-width: 2; stroke-linecap: square"/>
    </g>
    <g id="text_29">
     <!-- b7d5efe0 (active) -->
     <g transform="translate(427.682399 105.435905) scale(0.07 -0.07)">
      <defs>
       <path id="DejaVuSans-1a" d="M 525 4666
L 3525 4666
L 3525 4397
L 1831 0
L 1172 0
L 2766 4134
L 525 4134
L 525 4666
z
" transform="scale(0.015625)"/>
      </defs>
      <use xlink:href="#DejaVuSans-45"/>
      <use xlink:href="#DejaVuSans-1a" transform="translate(63.484375 0)"/>
      <use xlink:href="#DejaVuSans-47" transform="translate(127.109375 0)"/>
      <use xlink:href="#DejaVuSans-18" transform="translate(190.59375 0)"/>
      <use xlink:href="#DejaVuSans-48" transform="translate(254.21875 0)"/>
      <use xlink:href="#DejaVuSans-49" transform="translate(315.75 0)"/>
      <use xlink:href="#DejaVuSans-48" transform="translate(350.953125 0)"/>
      <use xlink:href="#DejaVuSans-13" transform="translate(412.484375 0)"/>
      <use xlink:href="#DejaVuSans-3" transform="translate(476.109375 0)"/>
      <use xlink:href="#DejaVuSans-b" transform="translate(507.890625 0)"/>
      <use xlink:href="#DejaVuSans-44" transform="translate(546.90625 0)"/>
      <use xlink:href="#DejaVuSans-46" transform="translate(608.1875 0)"/>
      <use xlink:href="#DejaVuSans-57" transform="translate(663.171875 0)"/>
      <use xlink:href="#DejaVuSans-4c" transform="translate(702.375 0)"/>
      <use xlink:href="#DejaVuSans-59" transform="translate(730.15625 0)"/>
      <use xlink:href="#DejaVuSans-48" transform="translate(789.34375 0)"/>
      <use xlink:href="#DejaVuSans-c" transform="translate(850.875 0)"/>
     </g>
    </g>
   </g>
  </g>
  <g id="axes_3">
   <g id="patch_14">
    <path d="M 756.276517 151.104095
L 1051.688281 151.104095
L 1051.688281 72.815905
L 756.276517 72.815905
z
" style="fill: #ffffff"/>
   </g>
   <g id="matplotlib.axis_5">
    <g id="xtick_19">
     <g id="line2d_53">
      <path d="M 769.704324 151.104095
L 769.704324 72.815905
" clip-path="url(#p339b33f368)" style="fill: none; stroke: #b0b0b0; stroke-opacity: 0.25; stroke-width: 0.8; stroke-linecap: square"/>
     </g>
     <g id="line2d_54">
      <g>
       <use xlink:href="#me8ba2b3e14" x="769.704324" y="151.104095" style="stroke: #000000; stroke-width: 0.8"/>
      </g>
     </g>
     <g id="text_30">
      <!-- −500 -->
      <g transform="translate(755.97073 165.701751) scale(0.1 -0.1)">
       <use xlink:href="#DejaVuSans-c9c"/>
       <use xlink:href="#DejaVuSans-18" transform="translate(83.796875 0)"/>
       <use xlink:href="#DejaVuSans-13" transform="translate(147.421875 0)"/>
       <use xlink:href="#DejaVuSans-13" transform="translate(211.046875 0)"/>
      </g>
     </g>
    </g>
    <g id="xtick_20">
     <g id="line2d_55">
      <path d="M 803.180265 151.104095
L 803.180265 72.815905
" clip-path="url(#p339b33f368)" style="fill: none; stroke: #b0b0b0; stroke-opacity: 0.25; stroke-width: 0.8; stroke-linecap: square"/>
     </g>
     <g id="line2d_56">
      <g>
       <use xlink:href="#me8ba2b3e14" x="803.180265" y="151.104095" style="stroke: #000000; stroke-width: 0.8"/>
      </g>
     </g>
     <g id="text_31">
      <!-- −400 -->
      <g transform="translate(789.446671 165.701751) scale(0.1 -0.1)">
       <use xlink:href="#DejaVuSans-c9c"/>
       <use xlink:href="#DejaVuSans-17" transform="translate(83.796875 0)"/>
       <use xlink:href="#DejaVuSans-13" transform="translate(147.421875 0)"/>
       <use xlink:href="#DejaVuSans-13" transform="translate(211.046875 0)"/>
      </g>
     </g>
    </g>
    <g id="xtick_21">
     <g id="line2d_57">
      <path d="M 836.656205 151.104095
L 836.656205 72.815905
" clip-path="url(#p339b33f368)" style="fill: none; stroke: #b0b0b0; stroke-opacity: 0.25; stroke-width: 0.8; stroke-linecap: square"/>
     </g>
     <g id="line2d_58">
      <g>
       <use xlink:href="#me8ba2b3e14" x="836.656205" y="151.104095" style="stroke: #000000; stroke-width: 0.8"/>
      </g>
     </g>
     <g id="text_32">
      <!-- −300 -->
      <g transform="translate(822.922612 165.701751) scale(0.1 -0.1)">
       <use xlink:href="#DejaVuSans-c9c"/>
       <use xlink:href="#DejaVuSans-16" transform="translate(83.796875 0)"/>
       <use xlink:href="#DejaVuSans-13" transform="translate(147.421875 0)"/>
       <use xlink:href="#DejaVuSans-13" transform="translate(211.046875 0)"/>
      </g>
     </g>
    </g>
    <g id="xtick_22">
     <g id="line2d_59">
      <path d="M 870.132146 151.104095
L 870.132146 72.815905
" clip-path="url(#p339b33f368)" style="fill: none; stroke: #b0b0b0; stroke-opacity: 0.25; stroke-width: 0.8; stroke-linecap: square"/>
     </g>
     <g id="line2d_60">
      <g>
       <use xlink:href="#me8ba2b3e14" x="870.132146" y="151.104095" style="stroke: #000000; stroke-width: 0.8"/>
      </g>
     </g>
     <g id="text_33">
      <!-- −200 -->
      <g transform="translate(856.398552 165.701751) scale(0.1 -0.1)">
       <use xlink:href="#DejaVuSans-c9c"/>
       <use xlink:href="#DejaVuSans-15" transform="translate(83.796875 0)"/>
       <use xlink:href="#DejaVuSans-13" transform="translate(147.421875 0)"/>
       <use xlink:href="#DejaVuSans-13" transform="translate(211.046875 0)"/>
      </g>
     </g>
    </g>
    <g id="xtick_23">
     <g id="line2d_61">
      <path d="M 903.608087 151.104095
L 903.608087 72.815905
" clip-path="url(#p339b33f368)" style="fill: none; stroke: #b0b0b0; stroke-opacity: 0.25; stroke-width: 0.8; stroke-linecap: square"/>
     </g>
     <g id="line2d_62">
      <g>
       <use xlink:href="#me8ba2b3e14" x="903.608087" y="151.104095" style="stroke: #000000; stroke-width: 0.8"/>
      </g>
     </g>
     <g id="text_34">
      <!-- −100 -->
      <g transform="translate(889.874493 165.701751) scale(0.1 -0.1)">
       <use xlink:href="#DejaVuSans-c9c"/>
       <use xlink:href="#DejaVuSans-14" transform="translate(83.796875 0)"/>
       <use xlink:href="#DejaVuSans-13" transform="translate(147.421875 0)"/>
       <use xlink:href="#DejaVuSans-13" transform="translate(211.046875 0)"/>
      </g>
     </g>
    </g>
    <g id="xtick_24">
     <g id="line2d_63">
      <path d="M 937.084027 151.104095
L 937.084027 72.815905
" clip-path="url(#p339b33f368)" style="fill: none; stroke: #b0b0b0; stroke-opacity: 0.25; stroke-width: 0.8; stroke-linecap: square"/>
     </g>
     <g id="line2d_64">
      <g>
       <use xlink:href="#me8ba2b3e14" x="937.084027" y="151.104095" style="stroke: #000000; stroke-width: 0.8"/>
      </g>
     </g>
     <g id="text_35">
      <!-- 0 -->
      <g transform="translate(933.902777 165.701751) scale(0.1 -0.1)">
       <use xlink:href="#DejaVuSans-13"/>
      </g>
     </g>
    </g>
    <g id="xtick_25">
     <g id="line2d_65">
      <path d="M 970.559968 151.104095
L 970.559968 72.815905
" clip-path="url(#p339b33f368)" style="fill: none; stroke: #b0b0b0; stroke-opacity: 0.25; stroke-width: 0.8; stroke-linecap: square"/>
     </g>
     <g id="line2d_66">
      <g>
       <use xlink:href="#me8ba2b3e14" x="970.559968" y="151.104095" style="stroke: #000000; stroke-width: 0.8"/>
      </g>
     </g>
     <g id="text_36">
      <!-- 100 -->
      <g transform="translate(961.016218 165.701751) scale(0.1 -0.1)">
       <use xlink:href="#DejaVuSans-14"/>
       <use xlink:href="#DejaVuSans-13" transform="translate(63.625 0)"/>
       <use xlink:href="#DejaVuSans-13" transform="translate(127.25 0)"/>
      </g>
     </g>
    </g>
    <g id="xtick_26">
     <g id="line2d_67">
      <path d="M 1004.035909 151.104095
L 1004.035909 72.815905
" clip-path="url(#p339b33f368)" style="fill: none; stroke: #b0b0b0; stroke-opacity: 0.25; stroke-width: 0.8; stroke-linecap: square"/>
     </g>
     <g id="line2d_68">
      <g>
       <use xlink:href="#me8ba2b3e14" x="1004.035909" y="151.104095" style="stroke: #000000; stroke-width: 0.8"/>
      </g>
     </g>
     <g id="text_37">
      <!-- 200 -->
      <g transform="translate(994.492159 165.701751) scale(0.1 -0.1)">
       <use xlink:href="#DejaVuSans-15"/>
       <use xlink:href="#DejaVuSans-13" transform="translate(63.625 0)"/>
       <use xlink:href="#DejaVuSans-13" transform="translate(127.25 0)"/>
      </g>
     </g>
    </g>
    <g id="xtick_27">
     <g id="line2d_69">
      <path d="M 1037.51185 151.104095
L 1037.51185 72.815905
" clip-path="url(#p339b33f368)" style="fill: none; stroke: #b0b0b0; stroke-opacity: 0.25; stroke-width: 0.8; stroke-linecap: square"/>
     </g>
     <g id="line2d_70">
      <g>
       <use xlink:href="#me8ba2b3e14" x="1037.51185" y="151.104095" style="stroke: #000000; stroke-width: 0.8"/>
      </g>
     </g>
     <g id="text_38">
      <!-- 300 -->
      <g transform="translate(1027.9681 165.701751) scale(0.1 -0.1)">
       <use xlink:href="#DejaVuSans-16"/>
       <use xlink:href="#DejaVuSans-13" transform="translate(63.625 0)"/>
       <use xlink:href="#DejaVuSans-13" transform="translate(127.25 0)"/>
      </g>
     </g>
    </g>
    <g id="text_39">
     <!-- projected x from initial tip (µm) -->
     <g transform="translate(825.612086 179.702532) scale(0.1 -0.1)">
      <use xlink:href="#DejaVuSans-53"/>
      <use xlink:href="#DejaVuSans-55" transform="translate(63.484375 0)"/>
      <use xlink:href="#DejaVuSans-52" transform="translate(102.390625 0)"/>
      <use xlink:href="#DejaVuSans-4d" transform="translate(163.578125 0)"/>
      <use xlink:href="#DejaVuSans-48" transform="translate(191.359375 0)"/>
      <use xlink:href="#DejaVuSans-46" transform="translate(252.890625 0)"/>
      <use xlink:href="#DejaVuSans-57" transform="translate(307.875 0)"/>
      <use xlink:href="#DejaVuSans-48" transform="translate(347.078125 0)"/>
      <use xlink:href="#DejaVuSans-47" transform="translate(408.609375 0)"/>
      <use xlink:href="#DejaVuSans-3" transform="translate(472.09375 0)"/>
      <use xlink:href="#DejaVuSans-5b" transform="translate(503.875 0)"/>
      <use xlink:href="#DejaVuSans-3" transform="translate(563.0625 0)"/>
      <use xlink:href="#DejaVuSans-49" transform="translate(594.84375 0)"/>
      <use xlink:href="#DejaVuSans-55" transform="translate(630.046875 0)"/>
      <use xlink:href="#DejaVuSans-52" transform="translate(668.953125 0)"/>
      <use xlink:href="#DejaVuSans-50" transform="translate(730.140625 0)"/>
      <use xlink:href="#DejaVuSans-3" transform="translate(827.546875 0)"/>
      <use xlink:href="#DejaVuSans-4c" transform="translate(859.328125 0)"/>
      <use xlink:href="#DejaVuSans-51" transform="translate(887.109375 0)"/>
      <use xlink:href="#DejaVuSans-4c" transform="translate(950.484375 0)"/>
      <use xlink:href="#DejaVuSans-57" transform="translate(978.265625 0)"/>
      <use xlink:href="#DejaVuSans-4c" transform="translate(1017.46875 0)"/>
      <use xlink:href="#DejaVuSans-44" transform="translate(1045.25 0)"/>
      <use xlink:href="#DejaVuSans-4f" transform="translate(1106.53125 0)"/>
      <use xlink:href="#DejaVuSans-3" transform="translate(1134.3125 0)"/>
      <use xlink:href="#DejaVuSans-57" transform="translate(1166.09375 0)"/>
      <use xlink:href="#DejaVuSans-4c" transform="translate(1205.296875 0)"/>
      <use xlink:href="#DejaVuSans-53" transform="translate(1233.078125 0)"/>
      <use xlink:href="#DejaVuSans-3" transform="translate(1296.5625 0)"/>
      <use xlink:href="#DejaVuSans-b" transform="translate(1328.34375 0)"/>
      <use xlink:href="#DejaVuSans-77" transform="translate(1367.359375 0)"/>
      <use xlink:href="#DejaVuSans-50" transform="translate(1430.984375 0)"/>
      <use xlink:href="#DejaVuSans-c" transform="translate(1528.390625 0)"/>
     </g>
    </g>
   </g>
   <g id="matplotlib.axis_6">
    <g id="ytick_5">
     <g id="line2d_71">
      <path d="M 756.276517 132.866749
L 1051.688281 132.866749
" clip-path="url(#p339b33f368)" style="fill: none; stroke: #b0b0b0; stroke-opacity: 0.25; stroke-width: 0.8; stroke-linecap: square"/>
     </g>
     <g id="line2d_72">
      <g>
       <use xlink:href="#m1f56f20741" x="756.276517" y="132.866749" style="stroke: #000000; stroke-width: 0.8"/>
      </g>
     </g>
    </g>
    <g id="ytick_6">
     <g id="line2d_73">
      <path d="M 756.276517 99.390808
L 1051.688281 99.390808
" clip-path="url(#p339b33f368)" style="fill: none; stroke: #b0b0b0; stroke-opacity: 0.25; stroke-width: 0.8; stroke-linecap: square"/>
     </g>
     <g id="line2d_74">
      <g>
       <use xlink:href="#m1f56f20741" x="756.276517" y="99.390808" style="stroke: #000000; stroke-width: 0.8"/>
      </g>
     </g>
    </g>
   </g>
   <g id="line2d_75">
    <path d="M 769.704324 132.866749
L 937.084027 132.866749
L 938.267581 134.050302
L 939.451134 135.233856
L 940.634687 134.050302
" clip-path="url(#p339b33f368)" style="fill: none; stroke-dasharray: 7.4,3.2; stroke-dashoffset: 0; stroke: #1f77b4; stroke-width: 2"/>
   </g>
   <g id="line2d_76">
    <path d="M 940.634687 134.050302
L 941.81824 135.233856
L 943.001794 136.417409
L 944.185347 137.600962
L 945.3689 138.784515
L 946.552453 139.968069
L 947.736007 141.151622
L 948.91956 142.335175
" clip-path="url(#p339b33f368)" style="fill: none; stroke: #ff7f0e; stroke-width: 2; stroke-linecap: square"/>
   </g>
   <g id="line2d_77">
    <path d="M 940.634687 134.050302
L 941.81824 132.866749
L 943.001794 131.683196
L 944.185347 130.499643
L 945.3689 129.316089
L 946.552453 128.132536
L 947.736007 126.948983
L 948.91956 125.76543
L 950.103113 124.581876
L 951.286666 123.398323
L 952.47022 122.21477
L 953.653773 121.031217
" clip-path="url(#p339b33f368)" style="fill: none; stroke: #2ca02c; stroke-width: 2; stroke-linecap: square"/>
   </g>
   <g id="patch_15">
    <path d="M 756.276517 151.104095
L 756.276517 72.815905
" style="fill: none; stroke: #000000; stroke-width: 0.8; stroke-linejoin: miter; stroke-linecap: square"/>
   </g>
   <g id="patch_16">
    <path d="M 1051.688281 151.104095
L 1051.688281 72.815905
" style="fill: none; stroke: #000000; stroke-width: 0.8; stroke-linejoin: miter; stroke-linecap: square"/>
   </g>
   <g id="patch_17">
    <path d="M 756.276517 151.104095
L 1051.688281 151.104095
" style="fill: none; stroke: #000000; stroke-width: 0.8; stroke-linejoin: miter; stroke-linecap: square"/>
   </g>
   <g id="patch_18">
    <path d="M 756.276517 72.815905
L 1051.688281 72.815905
" style="fill: none; stroke: #000000; stroke-width: 0.8; stroke-linejoin: miter; stroke-linecap: square"/>
   </g>
   <g id="text_40">
    <!-- branching enabled theta45 fallback -->
    <g transform="translate(797.085836 66.815905) scale(0.12 -0.12)">
     <defs>
      <path id="DejaVuSans-4e" d="M 581 4863
L 1159 4863
L 1159 1991
L 2875 3500
L 3609 3500
L 1753 1863
L 3688 0
L 2938 0
L 1159 1709
L 1159 0
L 581 0
L 581 4863
z
" transform="scale(0.015625)"/>
     </defs>
     <use xlink:href="#DejaVuSans-45"/>
     <use xlink:href="#DejaVuSans-55" transform="translate(63.484375 0)"/>
     <use xlink:href="#DejaVuSans-44" transform="translate(104.59375 0)"/>
     <use xlink:href="#DejaVuSans-51" transform="translate(165.875 0)"/>
     <use xlink:href="#DejaVuSans-46" transform="translate(229.25 0)"/>
     <use xlink:href="#DejaVuSans-4b" transform="translate(284.234375 0)"/>
     <use xlink:href="#DejaVuSans-4c" transform="translate(347.609375 0)"/>
     <use xlink:href="#DejaVuSans-51" transform="translate(375.390625 0)"/>
     <use xlink:href="#DejaVuSans-4a" transform="translate(438.765625 0)"/>
     <use xlink:href="#DejaVuSans-3" transform="translate(502.25 0)"/>
     <use xlink:href="#DejaVuSans-48" transform="translate(534.03125 0)"/>
     <use xlink:href="#DejaVuSans-51" transform="translate(595.5625 0)"/>
     <use xlink:href="#DejaVuSans-44" transform="translate(658.9375 0)"/>
     <use xlink:href="#DejaVuSans-45" transform="translate(720.21875 0)"/>
     <use xlink:href="#DejaVuSans-4f" transform="translate(783.703125 0)"/>
     <use xlink:href="#DejaVuSans-48" transform="translate(811.484375 0)"/>
     <use xlink:href="#DejaVuSans-47" transform="translate(873.015625 0)"/>
     <use xlink:href="#DejaVuSans-3" transform="translate(936.5 0)"/>
     <use xlink:href="#DejaVuSans-57" transform="translate(968.28125 0)"/>
     <use xlink:href="#DejaVuSans-4b" transform="translate(1007.484375 0)"/>
     <use xlink:href="#DejaVuSans-48" transform="translate(1070.859375 0)"/>
     <use xlink:href="#DejaVuSans-57" transform="translate(1132.390625 0)"/>
     <use xlink:href="#DejaVuSans-44" transform="translate(1171.59375 0)"/>
     <use xlink:href="#DejaVuSans-17" transform="translate(1232.875 0)"/>
     <use xlink:href="#DejaVuSans-18" transform="translate(1296.5 0)"/>
     <use xlink:href="#DejaVuSans-3" transform="translate(1360.125 0)"/>
     <use xlink:href="#DejaVuSans-49" transform="translate(1391.90625 0)"/>
     <use xlink:href="#DejaVuSans-44" transform="translate(1427.109375 0)"/>
     <use xlink:href="#DejaVuSans-4f" transform="translate(1488.390625 0)"/>
     <use xlink:href="#DejaVuSans-4f" transform="translate(1516.171875 0)"/>
     <use xlink:href="#DejaVuSans-45" transform="translate(1543.953125 0)"/>
     <use xlink:href="#DejaVuSans-44" transform="translate(1607.4375 0)"/>
     <use xlink:href="#DejaVuSans-46" transform="translate(1668.71875 0)"/>
     <use xlink:href="#DejaVuSans-4e" transform="translate(1723.703125 0)"/>
    </g>
   </g>
   <g id="legend_3">
    <g id="patch_19">
     <path d="M 942.290313 109.917546
L 1046.788281 109.917546
Q 1048.188281 109.917546 1048.188281 108.517546
L 1048.188281 77.715905
Q 1048.188281 76.315905 1046.788281 76.315905
L 942.290313 76.315905
Q 940.890313 76.315905 940.890313 77.715905
L 940.890313 108.517546
Q 940.890313 109.917546 942.290313 109.917546
z
" style="fill: #ffffff; opacity: 0.8; stroke: #cccccc; stroke-linejoin: miter"/>
    </g>
    <g id="line2d_78">
     <path d="M 943.690313 81.984812
L 950.690313 81.984812
L 957.690313 81.984812
" style="fill: none; stroke-dasharray: 7.4,3.2; stroke-dashoffset: 0; stroke: #1f77b4; stroke-width: 2"/>
    </g>
    <g id="text_41">
     <!-- b0000000 (terminated) -->
     <g transform="translate(963.290313 84.434812) scale(0.07 -0.07)">
      <use xlink:href="#DejaVuSans-45"/>
      <use xlink:href="#DejaVuSans-13" transform="translate(63.484375 0)"/>
      <use xlink:href="#DejaVuSans-13" transform="translate(127.109375 0)"/>
      <use xlink:href="#DejaVuSans-13" transform="translate(190.734375 0)"/>
      <use xlink:href="#DejaVuSans-13" transform="translate(254.359375 0)"/>
      <use xlink:href="#DejaVuSans-13" transform="translate(317.984375 0)"/>
      <use xlink:href="#DejaVuSans-13" transform="translate(381.609375 0)"/>
      <use xlink:href="#DejaVuSans-13" transform="translate(445.234375 0)"/>
      <use xlink:href="#DejaVuSans-3" transform="translate(508.859375 0)"/>
      <use xlink:href="#DejaVuSans-b" transform="translate(540.640625 0)"/>
      <use xlink:href="#DejaVuSans-57" transform="translate(579.65625 0)"/>
      <use xlink:href="#DejaVuSans-48" transform="translate(618.859375 0)"/>
      <use xlink:href="#DejaVuSans-55" transform="translate(680.390625 0)"/>
      <use xlink:href="#DejaVuSans-50" transform="translate(719.75 0)"/>
      <use xlink:href="#DejaVuSans-4c" transform="translate(817.15625 0)"/>
      <use xlink:href="#DejaVuSans-51" transform="translate(844.9375 0)"/>
      <use xlink:href="#DejaVuSans-44" transform="translate(908.3125 0)"/>
      <use xlink:href="#DejaVuSans-57" transform="translate(969.59375 0)"/>
      <use xlink:href="#DejaVuSans-48" transform="translate(1008.796875 0)"/>
      <use xlink:href="#DejaVuSans-47" transform="translate(1070.328125 0)"/>
      <use xlink:href="#DejaVuSans-c" transform="translate(1133.8125 0)"/>
     </g>
    </g>
    <g id="line2d_79">
     <path d="M 943.690313 92.485358
L 950.690313 92.485358
L 957.690313 92.485358
" style="fill: none; stroke: #ff7f0e; stroke-width: 2; stroke-linecap: square"/>
    </g>
    <g id="text_42">
     <!-- b002cebd (active) -->
     <g transform="translate(963.290313 94.935358) scale(0.07 -0.07)">
      <use xlink:href="#DejaVuSans-45"/>
      <use xlink:href="#DejaVuSans-13" transform="translate(63.484375 0)"/>
      <use xlink:href="#DejaVuSans-13" transform="translate(127.109375 0)"/>
      <use xlink:href="#DejaVuSans-15" transform="translate(190.734375 0)"/>
      <use xlink:href="#DejaVuSans-46" transform="translate(254.359375 0)"/>
      <use xlink:href="#DejaVuSans-48" transform="translate(309.34375 0)"/>
      <use xlink:href="#DejaVuSans-45" transform="translate(370.875 0)"/>
      <use xlink:href="#DejaVuSans-47" transform="translate(434.359375 0)"/>
      <use xlink:href="#DejaVuSans-3" transform="translate(497.84375 0)"/>
      <use xlink:href="#DejaVuSans-b" transform="translate(529.625 0)"/>
      <use xlink:href="#DejaVuSans-44" transform="translate(568.640625 0)"/>
      <use xlink:href="#DejaVuSans-46" transform="translate(629.921875 0)"/>
      <use xlink:href="#DejaVuSans-57" transform="translate(684.90625 0)"/>
      <use xlink:href="#DejaVuSans-4c" transform="translate(724.109375 0)"/>
      <use xlink:href="#DejaVuSans-59" transform="translate(751.890625 0)"/>
      <use xlink:href="#DejaVuSans-48" transform="translate(811.078125 0)"/>
      <use xlink:href="#DejaVuSans-c" transform="translate(872.609375 0)"/>
     </g>
    </g>
    <g id="line2d_80">
     <path d="M 943.690313 102.985905
L 950.690313 102.985905
L 957.690313 102.985905
" style="fill: none; stroke: #2ca02c; stroke-width: 2; stroke-linecap: square"/>
    </g>
    <g id="text_43">
     <!-- b7ad021a (active) -->
     <g transform="translate(963.290313 105.435905) scale(0.07 -0.07)">
      <use xlink:href="#DejaVuSans-45"/>
      <use xlink:href="#DejaVuSans-1a" transform="translate(63.484375 0)"/>
      <use xlink:href="#DejaVuSans-44" transform="translate(127.109375 0)"/>
      <use xlink:href="#DejaVuSans-47" transform="translate(188.390625 0)"/>
      <use xlink:href="#DejaVuSans-13" transform="translate(251.875 0)"/>
      <use xlink:href="#DejaVuSans-15" transform="translate(315.5 0)"/>
      <use xlink:href="#DejaVuSans-14" transform="translate(379.125 0)"/>
      <use xlink:href="#DejaVuSans-44" transform="translate(442.75 0)"/>
      <use xlink:href="#DejaVuSans-3" transform="translate(504.03125 0)"/>
      <use xlink:href="#DejaVuSans-b" transform="translate(535.8125 0)"/>
      <use xlink:href="#DejaVuSans-44" transform="translate(574.828125 0)"/>
      <use xlink:href="#DejaVuSans-46" transform="translate(636.109375 0)"/>
      <use xlink:href="#DejaVuSans-57" transform="translate(691.09375 0)"/>
      <use xlink:href="#DejaVuSans-4c" transform="translate(730.296875 0)"/>
      <use xlink:href="#DejaVuSans-59" transform="translate(758.078125 0)"/>
      <use xlink:href="#DejaVuSans-48" transform="translate(817.265625 0)"/>
      <use xlink:href="#DejaVuSans-c" transform="translate(878.796875 0)"/>
     </g>
    </g>
   </g>
  </g>
  <g id="text_44">
   <!-- Current-source PF: matched final crack morphology -->
   <g transform="translate(378.925156 16.318125) scale(0.12 -0.12)">
    <defs>
     <path id="DejaVuSans-26" d="M 4122 4306
L 4122 3641
Q 3803 3938 3442 4084
Q 3081 4231 2675 4231
Q 1875 4231 1450 3742
Q 1025 3253 1025 2328
Q 1025 1406 1450 917
Q 1875 428 2675 428
Q 3081 428 3442 575
Q 3803 722 4122 1019
L 4122 359
Q 3791 134 3420 21
Q 3050 -91 2638 -91
Q 1578 -91 968 557
Q 359 1206 359 2328
Q 359 3453 968 4101
Q 1578 4750 2638 4750
Q 3056 4750 3426 4639
Q 3797 4528 4122 4306
z
" transform="scale(0.015625)"/>
     <path id="DejaVuSans-58" d="M 544 1381
L 544 3500
L 1119 3500
L 1119 1403
Q 1119 906 1312 657
Q 1506 409 1894 409
Q 2359 409 2629 706
Q 2900 1003 2900 1516
L 2900 3500
L 3475 3500
L 3475 0
L 2900 0
L 2900 538
Q 2691 219 2414 64
Q 2138 -91 1772 -91
Q 1169 -91 856 284
Q 544 659 544 1381
z
M 1991 3584
L 1991 3584
z
" transform="scale(0.015625)"/>
     <path id="DejaVuSans-10" d="M 313 2009
L 1997 2009
L 1997 1497
L 313 1497
L 313 2009
z
" transform="scale(0.015625)"/>
     <path id="DejaVuSans-33" d="M 1259 4147
L 1259 2394
L 2053 2394
Q 2494 2394 2734 2622
Q 2975 2850 2975 3272
Q 2975 3691 2734 3919
Q 2494 4147 2053 4147
L 1259 4147
z
M 628 4666
L 2053 4666
Q 2838 4666 3239 4311
Q 3641 3956 3641 3272
Q 3641 2581 3239 2228
Q 2838 1875 2053 1875
L 1259 1875
L 1259 0
L 628 0
L 628 4666
z
" transform="scale(0.015625)"/>
     <path id="DejaVuSans-29" d="M 628 4666
L 3309 4666
L 3309 4134
L 1259 4134
L 1259 2759
L 3109 2759
L 3109 2228
L 1259 2228
L 1259 0
L 628 0
L 628 4666
z
" transform="scale(0.015625)"/>
     <path id="DejaVuSans-1d" d="M 750 794
L 1409 794
L 1409 0
L 750 0
L 750 794
z
M 750 3309
L 1409 3309
L 1409 2516
L 750 2516
L 750 3309
z
" transform="scale(0.015625)"/>
     <path id="DejaVuSans-13af" d="M 3431 3500
L 3431 0
L 2853 0
L 2853 3053
L 1275 3053
L 1275 0
L 697 0
L 697 3053
L 147 3053
L 147 3500
L 697 3500
L 697 3744
Q 697 4316 967 4589
Q 1238 4863 1797 4863
L 2375 4863
L 2375 4384
L 1825 4384
Q 1516 4384 1395 4259
Q 1275 4134 1275 3809
L 1275 3500
L 3431 3500
z
M 2853 4856
L 3431 4856
L 3431 4128
L 2853 4128
L 2853 4856
z
" transform="scale(0.015625)"/>
    </defs>
    <use xlink:href="#DejaVuSans-26"/>
    <use xlink:href="#DejaVuSans-58" transform="translate(69.828125 0)"/>
    <use xlink:href="#DejaVuSans-55" transform="translate(133.203125 0)"/>
    <use xlink:href="#DejaVuSans-55" transform="translate(172.5625 0)"/>
    <use xlink:href="#DejaVuSans-48" transform="translate(211.46875 0)"/>
    <use xlink:href="#DejaVuSans-51" transform="translate(273 0)"/>
    <use xlink:href="#DejaVuSans-57" transform="translate(336.375 0)"/>
    <use xlink:href="#DejaVuSans-10" transform="translate(375.578125 0)"/>
    <use xlink:href="#DejaVuSans-56" transform="translate(411.65625 0)"/>
    <use xlink:href="#DejaVuSans-52" transform="translate(463.75 0)"/>
    <use xlink:href="#DejaVuSans-58" transform="translate(524.9375 0)"/>
    <use xlink:href="#DejaVuSans-55" transform="translate(588.3125 0)"/>
    <use xlink:href="#DejaVuSans-46" transform="translate(627.21875 0)"/>
    <use xlink:href="#DejaVuSans-48" transform="translate(682.203125 0)"/>
    <use xlink:href="#DejaVuSans-3" transform="translate(743.734375 0)"/>
    <use xlink:href="#DejaVuSans-33" transform="translate(775.515625 0)"/>
    <use xlink:href="#DejaVuSans-29" transform="translate(835.8125 0)"/>
    <use xlink:href="#DejaVuSans-1d" transform="translate(885.5625 0)"/>
    <use xlink:href="#DejaVuSans-3" transform="translate(919.25 0)"/>
    <use xlink:href="#DejaVuSans-50" transform="translate(951.03125 0)"/>
    <use xlink:href="#DejaVuSans-44" transform="translate(1048.4375 0)"/>
    <use xlink:href="#DejaVuSans-57" transform="translate(1109.71875 0)"/>
    <use xlink:href="#DejaVuSans-46" transform="translate(1148.921875 0)"/>
    <use xlink:href="#DejaVuSans-4b" transform="translate(1203.90625 0)"/>
    <use xlink:href="#DejaVuSans-48" transform="translate(1267.28125 0)"/>
    <use xlink:href="#DejaVuSans-47" transform="translate(1328.8125 0)"/>
    <use xlink:href="#DejaVuSans-3" transform="translate(1392.296875 0)"/>
    <use xlink:href="#DejaVuSans-13af" transform="translate(1424.078125 0)"/>
    <use xlink:href="#DejaVuSans-51" transform="translate(1487.0625 0)"/>
    <use xlink:href="#DejaVuSans-44" transform="translate(1550.4375 0)"/>
    <use xlink:href="#DejaVuSans-4f" transform="translate(1611.71875 0)"/>
    <use xlink:href="#DejaVuSans-3" transform="translate(1639.5 0)"/>
    <use xlink:href="#DejaVuSans-46" transform="translate(1671.28125 0)"/>
    <use xlink:href="#DejaVuSans-55" transform="translate(1726.265625 0)"/>
    <use xlink:href="#DejaVuSans-44" transform="translate(1767.375 0)"/>
    <use xlink:href="#DejaVuSans-46" transform="translate(1828.65625 0)"/>
    <use xlink:href="#DejaVuSans-4e" transform="translate(1883.640625 0)"/>
    <use xlink:href="#DejaVuSans-3" transform="translate(1941.546875 0)"/>
    <use xlink:href="#DejaVuSans-50" transform="translate(1973.328125 0)"/>
    <use xlink:href="#DejaVuSans-52" transform="translate(2070.734375 0)"/>
    <use xlink:href="#DejaVuSans-55" transform="translate(2131.921875 0)"/>
    <use xlink:href="#DejaVuSans-53" transform="translate(2173.03125 0)"/>
    <use xlink:href="#DejaVuSans-4b" transform="translate(2236.515625 0)"/>
    <use xlink:href="#DejaVuSans-52" transform="translate(2299.890625 0)"/>
    <use xlink:href="#DejaVuSans-4f" transform="translate(2361.078125 0)"/>
    <use xlink:href="#DejaVuSans-52" transform="translate(2388.859375 0)"/>
    <use xlink:href="#DejaVuSans-4a" transform="translate(2450.046875 0)"/>
    <use xlink:href="#DejaVuSans-5c" transform="translate(2513.53125 0)"/>
   </g>
  </g>
  <g id="text_45">
   <!-- CAPABILITY_DEMONSTRATION_NOT_VALIDATED_BRANCHING_PHYSICS -->
   <g style="fill: #595959" transform="translate(428.733594 216.358594) scale(0.06 -0.06)">
    <defs>
     <path id="DejaVuSans-24" d="M 2188 4044
L 1331 1722
L 3047 1722
L 2188 4044
z
M 1831 4666
L 2547 4666
L 4325 0
L 3669 0
L 3244 1197
L 1141 1197
L 716 0
L 50 0
L 1831 4666
z
" transform="scale(0.015625)"/>
     <path id="DejaVuSans-25" d="M 1259 2228
L 1259 519
L 2272 519
Q 2781 519 3026 730
Q 3272 941 3272 1375
Q 3272 1813 3026 2020
Q 2781 2228 2272 2228
L 1259 2228
z
M 1259 4147
L 1259 2741
L 2194 2741
Q 2656 2741 2882 2914
Q 3109 3088 3109 3444
Q 3109 3797 2882 3972
Q 2656 4147 2194 4147
L 1259 4147
z
M 628 4666
L 2241 4666
Q 2963 4666 3353 4366
Q 3744 4066 3744 3513
Q 3744 3084 3544 2831
Q 3344 2578 2956 2516
Q 3422 2416 3680 2098
Q 3938 1781 3938 1306
Q 3938 681 3513 340
Q 3088 0 2303 0
L 628 0
L 628 4666
z
" transform="scale(0.015625)"/>
     <path id="DejaVuSans-2c" d="M 628 4666
L 1259 4666
L 1259 0
L 628 0
L 628 4666
z
" transform="scale(0.015625)"/>
     <path id="DejaVuSans-2f" d="M 628 4666
L 1259 4666
L 1259 531
L 3531 531
L 3531 0
L 628 0
L 628 4666
z
" transform="scale(0.015625)"/>
     <path id="DejaVuSans-37" d="M -19 4666
L 3928 4666
L 3928 4134
L 2272 4134
L 2272 0
L 1638 0
L 1638 4134
L -19 4134
L -19 4666
z
" transform="scale(0.015625)"/>
     <path id="DejaVuSans-3c" d="M -13 4666
L 666 4666
L 1959 2747
L 3244 4666
L 3922 4666
L 2272 2222
L 2272 0
L 1638 0
L 1638 2222
L -13 4666
z
" transform="scale(0.015625)"/>
     <path id="DejaVuSans-42" d="M 3263 -1063
L 3263 -1509
L -63 -1509
L -63 -1063
L 3263 -1063
z
" transform="scale(0.015625)"/>
     <path id="DejaVuSans-27" d="M 1259 4147
L 1259 519
L 2022 519
Q 2988 519 3436 956
Q 3884 1394 3884 2338
Q 3884 3275 3436 3711
Q 2988 4147 2022 4147
L 1259 4147
z
M 628 4666
L 1925 4666
Q 3281 4666 3915 4102
Q 4550 3538 4550 2338
Q 4550 1131 3912 565
Q 3275 0 1925 0
L 628 0
L 628 4666
z
" transform="scale(0.015625)"/>
     <path id="DejaVuSans-28" d="M 628 4666
L 3578 4666
L 3578 4134
L 1259 4134
L 1259 2753
L 3481 2753
L 3481 2222
L 1259 2222
L 1259 531
L 3634 531
L 3634 0
L 628 0
L 628 4666
z
" transform="scale(0.015625)"/>
     <path id="DejaVuSans-30" d="M 628 4666
L 1569 4666
L 2759 1491
L 3956 4666
L 4897 4666
L 4897 0
L 4281 0
L 4281 4097
L 3078 897
L 2444 897
L 1241 4097
L 1241 0
L 628 0
L 628 4666
z
" transform="scale(0.015625)"/>
     <path id="DejaVuSans-32" d="M 2522 4238
Q 1834 4238 1429 3725
Q 1025 3213 1025 2328
Q 1025 1447 1429 934
Q 1834 422 2522 422
Q 3209 422 3611 934
Q 4013 1447 4013 2328
Q 4013 3213 3611 3725
Q 3209 4238 2522 4238
z
M 2522 4750
Q 3503 4750 4090 4092
Q 4678 3434 4678 2328
Q 4678 1225 4090 567
Q 3503 -91 2522 -91
Q 1538 -91 948 565
Q 359 1222 359 2328
Q 359 3434 948 4092
Q 1538 4750 2522 4750
z
" transform="scale(0.015625)"/>
     <path id="DejaVuSans-31" d="M 628 4666
L 1478 4666
L 3547 763
L 3547 4666
L 4159 4666
L 4159 0
L 3309 0
L 1241 3903
L 1241 0
L 628 0
L 628 4666
z
" transform="scale(0.015625)"/>
     <path id="DejaVuSans-36" d="M 3425 4513
L 3425 3897
Q 3066 4069 2747 4153
Q 2428 4238 2131 4238
Q 1616 4238 1336 4038
Q 1056 3838 1056 3469
Q 1056 3159 1242 3001
Q 1428 2844 1947 2747
L 2328 2669
Q 3034 2534 3370 2195
Q 3706 1856 3706 1288
Q 3706 609 3251 259
Q 2797 -91 1919 -91
Q 1588 -91 1214 -16
Q 841 59 441 206
L 441 856
Q 825 641 1194 531
Q 1563 422 1919 422
Q 2459 422 2753 634
Q 3047 847 3047 1241
Q 3047 1584 2836 1778
Q 2625 1972 2144 2069
L 1759 2144
Q 1053 2284 737 2584
Q 422 2884 422 3419
Q 422 4038 858 4394
Q 1294 4750 2059 4750
Q 2388 4750 2728 4690
Q 3069 4631 3425 4513
z
" transform="scale(0.015625)"/>
     <path id="DejaVuSans-35" d="M 2841 2188
Q 3044 2119 3236 1894
Q 3428 1669 3622 1275
L 4263 0
L 3584 0
L 2988 1197
Q 2756 1666 2539 1819
Q 2322 1972 1947 1972
L 1259 1972
L 1259 0
L 628 0
L 628 4666
L 2053 4666
Q 2853 4666 3247 4331
Q 3641 3997 3641 3322
Q 3641 2881 3436 2590
Q 3231 2300 2841 2188
z
M 1259 4147
L 1259 2491
L 2053 2491
Q 2509 2491 2742 2702
Q 2975 2913 2975 3322
Q 2975 3731 2742 3939
Q 2509 4147 2053 4147
L 1259 4147
z
" transform="scale(0.015625)"/>
     <path id="DejaVuSans-39" d="M 1831 0
L 50 4666
L 709 4666
L 2188 738
L 3669 4666
L 4325 4666
L 2547 0
L 1831 0
z
" transform="scale(0.015625)"/>
     <path id="DejaVuSans-2b" d="M 628 4666
L 1259 4666
L 1259 2753
L 3553 2753
L 3553 4666
L 4184 4666
L 4184 0
L 3553 0
L 3553 2222
L 1259 2222
L 1259 0
L 628 0
L 628 4666
z
" transform="scale(0.015625)"/>
     <path id="DejaVuSans-2a" d="M 3809 666
L 3809 1919
L 2778 1919
L 2778 2438
L 4434 2438
L 4434 434
Q 4069 175 3628 42
Q 3188 -91 2688 -91
Q 1594 -91 976 548
Q 359 1188 359 2328
Q 359 3472 976 4111
Q 1594 4750 2688 4750
Q 3144 4750 3555 4637
Q 3966 4525 4313 4306
L 4313 3634
Q 3963 3931 3569 4081
Q 3175 4231 2741 4231
Q 1884 4231 1454 3753
Q 1025 3275 1025 2328
Q 1025 1384 1454 906
Q 1884 428 2741 428
Q 3075 428 3337 486
Q 3600 544 3809 666
z
" transform="scale(0.015625)"/>
    </defs>
    <use xlink:href="#DejaVuSans-26"/>
    <use xlink:href="#DejaVuSans-24" transform="translate(69.828125 0)"/>
    <use xlink:href="#DejaVuSans-33" transform="translate(138.234375 0)"/>
    <use xlink:href="#DejaVuSans-24" transform="translate(192.140625 0)"/>
    <use xlink:href="#DejaVuSans-25" transform="translate(260.546875 0)"/>
    <use xlink:href="#DejaVuSans-2c" transform="translate(329.15625 0)"/>
    <use xlink:href="#DejaVuSans-2f" transform="translate(358.65625 0)"/>
    <use xlink:href="#DejaVuSans-2c" transform="translate(414.375 0)"/>
    <use xlink:href="#DejaVuSans-37" transform="translate(443.875 0)"/>
    <use xlink:href="#DejaVuSans-3c" transform="translate(504.953125 0)"/>
    <use xlink:href="#DejaVuSans-42" transform="translate(566.03125 0)"/>
    <use xlink:href="#DejaVuSans-27" transform="translate(616.03125 0)"/>
    <use xlink:href="#DejaVuSans-28" transform="translate(693.03125 0)"/>
    <use xlink:href="#DejaVuSans-30" transform="translate(756.21875 0)"/>
    <use xlink:href="#DejaVuSans-32" transform="translate(842.5 0)"/>
    <use xlink:href="#DejaVuSans-31" transform="translate(921.21875 0)"/>
    <use xlink:href="#DejaVuSans-36" transform="translate(996.03125 0)"/>
    <use xlink:href="#DejaVuSans-37" transform="translate(1059.515625 0)"/>
    <use xlink:href="#DejaVuSans-35" transform="translate(1120.59375 0)"/>
    <use xlink:href="#DejaVuSans-24" transform="translate(1186.03125 0)"/>
    <use xlink:href="#DejaVuSans-37" transform="translate(1246.671875 0)"/>
    <use xlink:href="#DejaVuSans-2c" transform="translate(1307.75 0)"/>
    <use xlink:href="#DejaVuSans-32" transform="translate(1337.25 0)"/>
    <use xlink:href="#DejaVuSans-31" transform="translate(1415.96875 0)"/>
    <use xlink:href="#DejaVuSans-42" transform="translate(1490.78125 0)"/>
    <use xlink:href="#DejaVuSans-31" transform="translate(1540.78125 0)"/>
    <use xlink:href="#DejaVuSans-32" transform="translate(1615.59375 0)"/>
    <use xlink:href="#DejaVuSans-37" transform="translate(1694.3125 0)"/>
    <use xlink:href="#DejaVuSans-42" transform="translate(1755.390625 0)"/>
    <use xlink:href="#DejaVuSans-39" transform="translate(1805.390625 0)"/>
    <use xlink:href="#DejaVuSans-24" transform="translate(1867.40625 0)"/>
    <use xlink:href="#DejaVuSans-2f" transform="translate(1935.8125 0)"/>
    <use xlink:href="#DejaVuSans-2c" transform="translate(1991.53125 0)"/>
    <use xlink:href="#DejaVuSans-27" transform="translate(2021.03125 0)"/>
    <use xlink:href="#DejaVuSans-24" transform="translate(2096.28125 0)"/>
    <use xlink:href="#DejaVuSans-37" transform="translate(2156.921875 0)"/>
    <use xlink:href="#DejaVuSans-28" transform="translate(2218 0)"/>
    <use xlink:href="#DejaVuSans-27" transform="translate(2281.1875 0)"/>
    <use xlink:href="#DejaVuSans-42" transform="translate(2358.1875 0)"/>
    <use xlink:href="#DejaVuSans-25" transform="translate(2408.1875 0)"/>
    <use xlink:href="#DejaVuSans-35" transform="translate(2476.796875 0)"/>
    <use xlink:href="#DejaVuSans-24" transform="translate(2542.234375 0)"/>
    <use xlink:href="#DejaVuSans-31" transform="translate(2610.640625 0)"/>
    <use xlink:href="#DejaVuSans-26" transform="translate(2685.453125 0)"/>
    <use xlink:href="#DejaVuSans-2b" transform="translate(2755.28125 0)"/>
    <use xlink:href="#DejaVuSans-2c" transform="translate(2830.484375 0)"/>
    <use xlink:href="#DejaVuSans-31" transform="translate(2859.984375 0)"/>
    <use xlink:href="#DejaVuSans-2a" transform="translate(2934.796875 0)"/>
    <use xlink:href="#DejaVuSans-42" transform="translate(3012.28125 0)"/>
    <use xlink:href="#DejaVuSans-33" transform="translate(3062.28125 0)"/>
    <use xlink:href="#DejaVuSans-2b" transform="translate(3122.578125 0)"/>
    <use xlink:href="#DejaVuSans-3c" transform="translate(3197.78125 0)"/>
    <use xlink:href="#DejaVuSans-36" transform="translate(3258.859375 0)"/>
    <use xlink:href="#DejaVuSans-2c" transform="translate(3322.34375 0)"/>
    <use xlink:href="#DejaVuSans-26" transform="translate(3351.84375 0)"/>
    <use xlink:href="#DejaVuSans-36" transform="translate(3421.671875 0)"/>
   </g>
  </g>
 </g>
 <defs>
  <clipPath id="p82fe284e9d">
   <rect x="47.288281" y="72.815905" width="295.411765" height="78.288189"/>
  </clipPath>
  <clipPath id="pfe0131476f">
   <rect x="401.782399" y="72.815905" width="295.411765" height="78.288189"/>
  </clipPath>
  <clipPath id="p339b33f368">
   <rect x="756.276517" y="72.815905" width="295.411765" height="78.288189"/>
  </clipPath>
 </defs>
</svg>
